<svg width="96" height="64" viewBox="0 0 96 64" fill="none" xmlns="http://www.w3.org/2000/svg">
<path fill-rule="evenodd" clip-rule="evenodd" d="M26.3353 21.2269C25.5174 22.1647 24.2087 22.9043 22.9001 22.7987C22.7365 21.5307 23.3772 20.1834 24.1269 19.3513C24.9449 18.3871 26.3762 17.7003 27.5349 17.6475C27.6713 18.9683 27.1396 20.2627 26.3353 21.2269ZM27.5215 23.0497C26.3686 22.9854 25.3166 23.3857 24.4669 23.709C23.9201 23.917 23.457 24.0932 23.1048 24.0932C22.7094 24.0932 22.2273 23.9076 21.6859 23.6992C20.9765 23.4262 20.1655 23.114 19.3151 23.129C17.3657 23.1554 15.5526 24.2253 14.5575 25.9291C12.5127 29.3368 14.0258 34.3824 16.0025 37.1561C16.9704 38.5298 18.1291 40.0355 19.6559 39.9827C20.3276 39.9581 20.8107 39.7595 21.3108 39.5539C21.8865 39.3172 22.4845 39.0713 23.4183 39.0713C24.3197 39.0713 24.8916 39.3108 25.4406 39.5407C25.9626 39.7592 26.4638 39.9691 27.208 39.9563C28.7893 39.9298 29.7844 38.5826 30.7523 37.2089C31.7968 35.7346 32.2558 34.2958 32.3254 34.0774L32.3336 34.0522C32.3319 34.0506 32.3191 34.0448 32.2963 34.0348L32.2963 34.0347C31.9471 33.8799 29.2784 32.6961 29.2528 29.5218C29.2271 26.8574 31.3695 25.5074 31.7068 25.2949C31.7273 25.282 31.7412 25.2733 31.7474 25.2687C30.3842 23.3139 28.2576 23.1026 27.5215 23.0497ZM38.4677 39.8106V19.219H46.4424C50.5592 19.219 53.4356 21.9663 53.4356 25.9816C53.4356 29.9969 50.5047 32.7706 46.3333 32.7706H41.7666V39.8106H38.4677ZM41.7673 21.9136H45.5706C48.4333 21.9136 50.0692 23.3929 50.0692 25.9949C50.0692 28.597 48.4333 30.0895 45.557 30.0895H41.7673V21.9136ZM64.3279 37.3411C63.4555 38.9525 61.5334 39.9695 59.4613 39.9695C56.3941 39.9695 54.2539 38.1996 54.2539 35.5316C54.2539 32.8899 56.326 31.371 60.1565 31.1464L64.2734 30.9087V29.7728C64.2734 28.0953 63.1419 27.184 61.1244 27.184C59.4613 27.184 58.2481 28.0161 58.0027 29.2841H55.0309C55.1263 26.616 57.7164 24.6744 61.2198 24.6744C64.9959 24.6744 67.4497 26.5896 67.4497 29.5615V39.811H64.3961V37.3411H64.3279ZM60.3473 37.5259C58.5887 37.5259 57.4709 36.707 57.4709 35.4522C57.4709 34.1578 58.5478 33.4049 60.6063 33.286L64.2733 33.0615V34.2238C64.2733 36.1522 62.5829 37.5259 60.3473 37.5259ZM77.578 40.6167C76.2557 44.2225 74.7425 45.4112 71.5254 45.4112C71.28 45.4112 70.4621 45.3848 70.2712 45.332V42.8621C70.4757 42.8885 70.9801 42.9149 71.2391 42.9149C72.6977 42.9149 73.5156 42.3205 74.02 40.7752L74.3199 39.8638L68.7308 24.8725H72.1797L76.0648 37.0372H76.133L80.0181 24.8725H83.3716L77.578 40.6167Z" fill="black"/>
</svg>
