<svg width="21" height="23" viewBox="0 0 21 23" fill="none" xmlns="http://www.w3.org/2000/svg">
<path d="M10.5 1.75218C11.4531 1.75218 12.3672 2.11273 13.0412 2.75452C13.7151 3.39631 14.0938 4.26676 14.0938 5.17438V5.85882H6.90625V5.17438C6.90625 4.26676 7.28488 3.39631 7.95884 2.75452C8.63279 2.11273 9.54688 1.75218 10.5 1.75218ZM15.5312 5.85882V5.17438C15.5312 3.90371 15.0012 2.68508 14.0576 1.78658C13.1141 0.888074 11.8344 0.383301 10.5 0.383301C9.16563 0.383301 7.88591 0.888074 6.94237 1.78658C5.99883 2.68508 5.46875 3.90371 5.46875 5.17438V5.85882H0.4375V19.5476C0.4375 20.2737 0.740401 20.9701 1.27957 21.4835C1.81874 21.9969 2.55 22.2854 3.3125 22.2854H17.6875C18.45 22.2854 19.1813 21.9969 19.7204 21.4835C20.2596 20.9701 20.5625 20.2737 20.5625 19.5476V5.85882H15.5312ZM1.875 7.2277H19.125V19.5476C19.125 19.9107 18.9735 20.2589 18.704 20.5156C18.4344 20.7723 18.0687 20.9165 17.6875 20.9165H3.3125C2.93125 20.9165 2.56562 20.7723 2.29603 20.5156C2.02645 20.2589 1.875 19.9107 1.875 19.5476V7.2277Z" fill="white"/>
</svg>
