<svg width="96" height="65" viewBox="0 0 96 65" fill="none" xmlns="http://www.w3.org/2000/svg">
<path fill-rule="evenodd" clip-rule="evenodd" d="M44.2294 32.6321L44.6431 30.0754L43.7215 30.0545H39.3208L42.3791 11.188C42.3887 11.1309 42.4195 11.0778 42.4644 11.0401C42.5096 11.0024 42.5673 10.9817 42.6275 10.9817H50.0478C52.5114 10.9817 54.2114 11.4803 55.0988 12.4647C55.515 12.9265 55.78 13.4092 55.9083 13.9402C56.0428 14.4975 56.045 15.1632 55.9138 15.9753L55.9043 16.0344V16.5548L56.3204 16.7842C56.6707 16.965 56.9493 17.172 57.1629 17.4089C57.5188 17.8039 57.749 18.3058 57.8463 18.9006C57.9469 19.5124 57.9136 20.2406 57.749 21.065C57.5591 22.0132 57.2522 22.8391 56.8376 23.5147C56.4565 24.1374 55.9708 24.6539 55.394 25.054C54.8433 25.4343 54.1892 25.723 53.4496 25.9077C52.7327 26.0893 51.9155 26.1809 51.0192 26.1809H50.4417C50.0289 26.1809 49.6279 26.3255 49.313 26.5849C48.9972 26.8496 48.7885 27.2114 48.7245 27.607L48.6808 27.8372L47.9498 32.3436L47.9168 32.509C47.9079 32.5613 47.8928 32.5874 47.8707 32.6051C47.851 32.6213 47.8226 32.6321 47.7949 32.6321H44.2294Z" fill="#28356A"/>
<path fill-rule="evenodd" clip-rule="evenodd" d="M56.7144 16.0945C56.6925 16.2322 56.667 16.373 56.6386 16.5177C55.6601 21.4059 52.3122 23.0945 48.0365 23.0945H45.8594C45.3364 23.0945 44.8957 23.4638 44.8144 23.9657L43.384 32.7929C43.3311 33.1225 43.5921 33.4193 43.9338 33.4193H47.7952C48.2523 33.4193 48.6407 33.0962 48.7127 32.6575L48.7506 32.4667L49.4777 27.978L49.5244 27.7318C49.5955 27.2916 49.9849 26.9682 50.442 26.9682H51.0194C54.7605 26.9682 57.6892 25.4906 58.5452 21.2142C58.9026 19.4279 58.7176 17.9362 57.7714 16.8872C57.4851 16.5709 57.1299 16.3083 56.7144 16.0945Z" fill="#298FC2"/>
<path fill-rule="evenodd" clip-rule="evenodd" d="M55.691 15.6974C55.5414 15.6549 55.3872 15.6166 55.229 15.5819C55.0699 15.548 54.907 15.518 54.7393 15.4917C54.1523 15.3995 53.509 15.3557 52.8201 15.3557H47.0042C46.8608 15.3557 46.7247 15.3872 46.6031 15.4441C46.3348 15.5696 46.1355 15.8166 46.0872 16.1191L44.8499 23.7435L44.8145 23.9658C44.8958 23.4639 45.3365 23.0946 45.8595 23.0946H48.0365C52.3122 23.0946 55.6602 21.405 56.6387 16.5177C56.668 16.3731 56.6926 16.2323 56.7145 16.0945C56.467 15.9667 56.1989 15.8574 55.9101 15.7642C55.8388 15.7412 55.7652 15.719 55.691 15.6974Z" fill="#22284F"/>
<path fill-rule="evenodd" clip-rule="evenodd" d="M46.0871 16.1192C46.1354 15.8167 46.3346 15.5697 46.603 15.445C46.7255 15.3879 46.8607 15.3564 47.004 15.3564H52.82C53.5089 15.3564 54.1522 15.4004 54.7391 15.4927C54.9069 15.5188 55.0698 15.549 55.2289 15.5828C55.3871 15.6173 55.5413 15.6559 55.6909 15.6981C55.7651 15.7197 55.8387 15.7421 55.9107 15.7643C56.1994 15.8575 56.4677 15.9676 56.7153 16.0946C57.0064 14.2882 56.7128 13.0583 55.709 11.9446C54.6022 10.7183 52.6048 10.1936 50.0488 10.1936H42.6284C42.1063 10.1936 41.6609 10.5629 41.5803 11.0656L38.4896 30.1262C38.4287 30.5032 38.7276 30.8434 39.1185 30.8434H43.6995L46.0871 16.1192Z" fill="#28356A"/>
<path fill-rule="evenodd" clip-rule="evenodd" d="M22.3663 37.8213H16.9561C16.5858 37.8213 16.2709 38.083 16.2131 38.4387L14.0249 51.9361C13.9815 52.2025 14.1936 52.4425 14.4712 52.4425H17.054C17.4243 52.4425 17.7392 52.181 17.797 51.8246L18.3871 48.184C18.444 47.8277 18.7596 47.566 19.1292 47.566H20.8418C24.4056 47.566 26.4623 45.8881 26.9997 42.5633C27.2417 41.1085 27.0099 39.9657 26.3097 39.1652C25.5408 38.2863 24.1769 37.8213 22.3663 37.8213ZM22.9902 42.7511C22.6943 44.6398 21.2111 44.6398 19.777 44.6398H18.9604L19.5332 41.1124C19.5673 40.8992 19.757 40.7423 19.9786 40.7423H20.3529C21.3298 40.7423 22.2514 40.7423 22.7276 41.284C23.0117 41.6072 23.0985 42.0875 22.9902 42.7511Z" fill="#28356A"/>
<path fill-rule="evenodd" clip-rule="evenodd" d="M38.6764 42.5882H36.0857C35.865 42.5882 35.6742 42.7452 35.6403 42.9584L35.5255 43.6633L35.3445 43.4079C34.7836 42.6158 33.5328 42.3511 32.2846 42.3511C29.4215 42.3511 26.9763 44.4608 26.5001 47.4201C26.2526 48.8962 26.6044 50.3079 27.4653 51.2923C28.2548 52.1973 29.3845 52.5746 30.7284 52.5746C33.0353 52.5746 34.3143 51.1314 34.3143 51.1314L34.1989 51.8319C34.1554 52.0996 34.3675 52.3398 34.6436 52.3398H36.9771C37.3483 52.3398 37.6616 52.0781 37.7201 51.7217L39.1203 43.0946C39.1646 42.829 38.9532 42.5882 38.6764 42.5882ZM35.065 47.4941C34.8151 48.934 33.6404 49.9007 32.1421 49.9007C31.3898 49.9007 30.7886 49.6659 30.4024 49.2211C30.0195 48.7794 29.8741 48.1505 29.9958 47.4501C30.2293 46.0225 31.4237 45.0241 32.8992 45.0241C33.6349 45.0241 34.233 45.2621 34.6269 45.7105C35.0216 46.1639 35.1782 46.7967 35.065 47.4941Z" fill="#28356A"/>
<path fill-rule="evenodd" clip-rule="evenodd" d="M52.2755 42.804H49.6719C49.4235 42.804 49.1902 42.924 49.0495 43.125L45.4587 48.2708L43.9366 43.3257C43.8409 43.0163 43.5475 42.804 43.2151 42.804H40.6569C40.3458 42.804 40.13 43.0995 40.2288 43.3843L43.0966 51.5718L40.4005 55.2747C40.1885 55.5664 40.4021 55.9674 40.7684 55.9674H43.3687C43.6155 55.9674 43.8464 55.8503 43.9865 55.6535L52.6456 43.4927C52.853 43.2019 52.64 42.804 52.2755 42.804Z" fill="#28356A"/>
<path fill-rule="evenodd" clip-rule="evenodd" d="M60.9547 37.8213H55.5438C55.1744 37.8213 54.8596 38.083 54.8017 38.4387L52.6136 51.9361C52.5701 52.2025 52.7822 52.4425 53.0583 52.4425H55.835C56.0927 52.4425 56.3134 52.2595 56.3537 52.01L56.9748 48.184C57.0318 47.8277 57.3475 47.566 57.7169 47.566H59.4289C62.9933 47.566 65.0494 45.8881 65.5874 42.5633C65.8303 41.1085 65.5969 39.9657 64.8967 39.1652C64.1285 38.2863 62.7655 37.8213 60.9547 37.8213ZM61.579 42.7511C61.2839 44.6398 59.8006 44.6398 58.3656 44.6398H57.5501L58.1236 41.1124C58.1575 40.8992 58.3459 40.7423 58.5681 40.7423H58.9424C59.9184 40.7423 60.8409 40.7423 61.3171 41.284C61.6012 41.6072 61.6874 42.0875 61.579 42.7511Z" fill="#298FC2"/>
<path fill-rule="evenodd" clip-rule="evenodd" d="M77.2616 42.5882H74.6723C74.4501 42.5882 74.2611 42.7452 74.2278 42.9584L74.1131 43.6633L73.9311 43.4079C73.3703 42.6158 72.1203 42.3511 70.8719 42.3511C68.009 42.3511 65.5647 44.4608 65.0885 47.4201C64.8417 48.8962 65.192 50.3079 66.0527 51.2923C66.8439 52.1973 67.9718 52.5746 69.316 52.5746C71.6227 52.5746 72.9019 51.1314 72.9019 51.1314L72.7864 51.8319C72.743 52.0996 72.9548 52.3398 73.2327 52.3398H75.5656C75.9349 52.3398 76.2498 52.0781 76.3076 51.7217L77.7085 43.0946C77.7513 42.829 77.5392 42.5882 77.2616 42.5882ZM73.6502 47.4941C73.4018 48.934 72.2254 49.9007 70.7271 49.9007C69.9764 49.9007 69.3736 49.6659 68.9874 49.2211C68.6047 48.7794 68.4607 48.1505 68.5808 47.4501C68.8159 46.0225 70.0087 45.0241 71.4842 45.0241C72.2199 45.0241 72.818 45.2621 73.2119 45.7105C73.6081 46.1639 73.7648 46.7967 73.6502 47.4941Z" fill="#298FC2"/>
<path fill-rule="evenodd" clip-rule="evenodd" d="M80.1 38.1923L77.8794 51.9367C77.836 52.2032 78.0479 52.4431 78.3239 52.4431H80.5564C80.9276 52.4431 81.2422 52.1816 81.2992 51.8253L83.4889 38.3286C83.5326 38.0621 83.3205 37.8213 83.0444 37.8213H80.5447C80.324 37.8219 80.1341 37.9791 80.1 38.1923Z" fill="#298FC2"/>
</svg>
