<svg width="29" height="27" viewBox="0 0 29 27" fill="none" xmlns="http://www.w3.org/2000/svg">
<path d="M14.9137 8.29907C13.4808 8.29907 12.1065 8.84714 11.0932 9.8227C10.08 10.7983 9.51074 12.1214 9.51074 13.5011C9.51074 14.8807 10.08 16.2039 11.0932 17.1794C12.1065 18.155 13.4808 18.7031 14.9137 18.7031C16.3467 18.7031 17.7209 18.155 18.7342 17.1794C19.7474 16.2039 20.3167 14.8807 20.3167 13.5011C20.3167 12.1214 19.7474 10.7983 18.7342 9.8227C17.7209 8.84714 16.3467 8.29907 14.9137 8.29907ZM14.9137 16.8794C13.9828 16.8794 13.09 16.5234 12.4317 15.8896C11.7735 15.2558 11.4036 14.3962 11.4036 13.4999C11.4036 12.6036 11.7735 11.7441 12.4317 11.1103C13.09 10.4765 13.9828 10.1204 14.9137 10.1204C15.8446 10.1204 16.7374 10.4765 17.3957 11.1103C18.054 11.7441 18.4238 12.6036 18.4238 13.4999C18.4238 14.3962 18.054 15.2558 17.3957 15.8896C16.7374 16.5234 15.8446 16.8794 14.9137 16.8794Z" fill="black"/>
<path d="M20.5306 9.32052C21.2263 9.32052 21.7902 8.77755 21.7902 8.10777C21.7902 7.43799 21.2263 6.89502 20.5306 6.89502C19.8349 6.89502 19.271 7.43799 19.271 8.10777C19.271 8.77755 19.8349 9.32052 20.5306 9.32052Z" fill="black"/>
<path d="M24.8857 6.87487C24.6152 6.20232 24.2018 5.59156 23.672 5.08168C23.1422 4.5718 22.5077 4.17405 21.8091 3.91387C20.9916 3.61839 20.1279 3.45862 19.2548 3.44137C18.1296 3.39412 17.7732 3.38062 14.9199 3.38062C12.0665 3.38062 11.7007 3.38062 10.5849 3.44137C9.71248 3.45774 8.84942 3.61754 8.03295 3.91387C7.33413 4.17374 6.69946 4.57139 6.16964 5.08131C5.63982 5.59122 5.22657 6.20214 4.95639 6.87487C4.64944 7.66193 4.48388 8.49356 4.4668 9.33412C4.41656 10.4164 4.40137 10.7595 4.40137 13.5079C4.40137 16.2551 4.40137 16.605 4.4668 17.6816C4.48433 18.5231 4.64908 19.3534 4.95639 20.142C5.22733 20.8145 5.64098 21.4251 6.17093 21.935C6.70087 22.4448 7.33545 22.8426 8.03411 23.103C8.84904 23.4103 9.71246 23.5815 10.5872 23.6092C11.7124 23.6565 12.0688 23.6711 14.9222 23.6711C17.7756 23.6711 18.1413 23.6711 19.2572 23.6092C20.1301 23.5921 20.9938 23.4328 21.8114 23.1379C22.5099 22.8771 23.1442 22.479 23.6739 21.969C24.2037 21.4589 24.6171 20.8482 24.888 20.1757C25.1953 19.3882 25.3601 18.558 25.3776 17.7165C25.4278 16.6342 25.443 16.2911 25.443 13.5427C25.443 10.7944 25.443 10.4456 25.3776 9.36899C25.364 8.51655 25.1976 7.67277 24.8857 6.87487V6.87487ZM23.4625 17.5984C23.4549 18.2467 23.332 18.889 23.0991 19.4974C22.9236 19.9348 22.655 20.3321 22.3105 20.6636C21.9659 20.9951 21.5532 21.2535 21.0987 21.4222C20.4738 21.6455 19.8138 21.7638 19.1474 21.7721C18.0373 21.8216 17.7242 21.834 14.8778 21.834C12.0291 21.834 11.7381 21.834 10.6071 21.7721C9.94096 21.7643 9.28124 21.6459 8.6569 21.4222C8.20084 21.2546 7.7864 20.9966 7.44041 20.6651C7.09441 20.3335 6.82456 19.9357 6.64832 19.4974C6.41865 18.8955 6.29581 18.2608 6.28493 17.6197C6.23468 16.551 6.223 16.2495 6.223 13.509C6.223 10.7674 6.223 10.4872 6.28493 9.39711C6.29248 8.74914 6.41539 8.10721 6.64832 7.49924C7.0047 6.61162 7.73499 5.91299 8.6569 5.57324C9.28155 5.35065 9.94107 5.23232 10.6071 5.22337C11.7183 5.17499 12.0303 5.16149 14.8778 5.16149C17.7253 5.16149 18.0174 5.16149 19.1474 5.22337C19.8139 5.23108 20.474 5.34945 21.0987 5.57324C21.5531 5.7423 21.9658 6.00097 22.3103 6.33265C22.6548 6.66433 22.9235 7.0617 23.0991 7.49924C23.3288 8.10106 23.4516 8.7358 23.4625 9.37687C23.5127 10.4467 23.5256 10.7471 23.5256 13.4887C23.5256 16.2292 23.5256 16.524 23.4753 17.5995H23.4625V17.5984Z" fill="black"/>
</svg>
