<svg width="96" height="63" viewBox="0 0 96 63" fill="none" xmlns="http://www.w3.org/2000/svg">
<path d="M57.126 45.4963H40.1667V16.5054H57.126V45.4963Z" fill="#FF5F00"/>
<path d="M41.2533 30.9985C41.2533 25.1175 44.1481 19.8789 48.6561 16.503C45.3595 14.0343 41.1991 12.5609 36.6775 12.5609C25.9732 12.5609 17.2961 20.8155 17.2961 30.9985C17.2961 41.1814 25.9732 49.436 36.6775 49.436C41.1991 49.436 45.3595 47.9626 48.6561 45.4939C44.1481 42.118 41.2533 36.8794 41.2533 30.9985Z" fill="#EB001B"/>
<path d="M79.9989 30.9985C79.9989 41.1814 71.3218 49.436 60.6175 49.436C56.096 49.436 51.9355 47.9626 48.6377 45.4939C53.1469 42.118 56.0417 36.8794 56.0417 30.9985C56.0417 25.1175 53.1469 19.8789 48.6377 16.503C51.9355 14.0343 56.096 12.5609 60.6175 12.5609C71.3218 12.5609 79.9989 20.8155 79.9989 30.9985Z" fill="#F79E1B"/>
</svg>
