<svg width="26" height="24" viewBox="0 0 26 24" fill="none" xmlns="http://www.w3.org/2000/svg">
<path d="M23.0359 4.4197L23.0025 4.39964L18.7867 2.3999L14.2363 8.24132L16.3298 10.929C16.2672 11.9426 15.8207 12.8989 15.075 13.6169C14.3293 14.3348 13.336 14.7647 12.2833 14.825L9.49185 12.8093L3.4248 17.1903L5.48451 21.2154L5.50184 21.2494L5.52273 21.2815C5.63264 21.452 5.78606 21.5926 5.96837 21.6899C6.15068 21.7872 6.35583 21.8379 6.56427 21.8373H7.6521C9.74813 21.8373 11.8236 21.4398 13.7601 20.6675C15.6966 19.8952 17.4561 18.7633 18.9382 17.3363C20.4204 15.9093 21.596 14.2152 22.3981 12.3507C23.2003 10.4863 23.6131 8.48799 23.6131 6.46992V5.4225C23.6138 5.22181 23.5611 5.0243 23.46 4.84877C23.359 4.67324 23.213 4.52553 23.0359 4.4197ZM22.0551 6.46992C22.0551 14.1164 15.5939 20.3373 7.6521 20.3373H6.77186L5.39376 17.6437L9.49214 14.6842L11.7739 16.3319H12.0335C13.5876 16.3302 15.0776 15.735 16.1765 14.677C17.2754 13.6189 17.8936 12.1844 17.8953 10.6881V10.4381L16.1841 8.24128L19.2575 4.29557L22.0551 5.62265V6.46992Z" fill="black"/>
</svg>
