<svg width="96" height="64" viewBox="0 0 96 64" fill="none" xmlns="http://www.w3.org/2000/svg">
<path d="M42.8638 43.5083H36.5371L40.4943 21.5256H46.8206L42.8638 43.5083Z" fill="#15195A"/>
<path d="M65.7983 22.0631C64.5504 21.6183 62.5712 21.1272 60.1238 21.1272C53.876 21.1272 49.4764 24.1204 49.4494 28.3998C49.3975 31.5572 52.5994 33.3108 54.9942 34.3636C57.4419 35.4393 58.2739 36.1415 58.2739 37.1004C58.249 38.5731 56.2961 39.2519 54.4745 39.2519C51.9487 39.2519 50.5952 38.9019 48.5385 38.0826L47.7054 37.7313L46.8201 42.666C48.3039 43.2733 51.0377 43.8123 53.876 43.8359C60.5144 43.8359 64.8362 40.889 64.8874 36.3286C64.9127 33.8262 63.2219 31.9087 59.5768 30.3418C57.364 29.336 56.0089 28.6578 56.0089 27.6287C56.0348 26.6931 57.1551 25.7348 59.6529 25.7348C61.7097 25.6879 63.2209 26.1321 64.3657 26.5765L64.9379 26.81L65.7983 22.0631Z" fill="#15195A"/>
<path fill-rule="evenodd" clip-rule="evenodd" d="M77.1229 21.5256H82.0166L87.1206 43.5079H81.2627C81.2627 43.5079 80.6894 40.9822 80.5078 40.2104H72.3849C72.15 40.7948 71.0571 43.5079 71.0571 43.5079H64.4187L73.8162 23.3495C74.4673 21.9229 75.6138 21.5256 77.1229 21.5256ZM76.733 29.5701C76.733 29.5701 74.7281 34.4578 74.2071 35.7206H79.4657C79.2056 34.6216 78.0075 29.3596 78.0075 29.3596L77.5654 27.4655C77.3792 27.9532 77.1099 28.6238 76.9283 29.0761C76.8052 29.3827 76.7223 29.589 76.733 29.5701Z" fill="#15195A"/>
<path fill-rule="evenodd" clip-rule="evenodd" d="M25.057 36.5157L31.2529 21.5256H37.9428L27.9984 43.485H21.3081L15.6692 24.384C13.7236 23.3621 11.5031 22.5402 9.02051 21.9698L9.12464 21.5256H19.3036C20.6833 21.572 21.8029 21.9695 22.1672 23.3735L24.3794 33.4739C24.3796 33.4745 24.3798 33.475 24.3799 33.4755L25.057 36.5157Z" fill="#15195A"/>
</svg>
