<svg width="23" height="22" viewBox="0 0 23 22" fill="none" xmlns="http://www.w3.org/2000/svg">
<path d="M20.0031 4.125H2.86562C2.48686 4.125 2.12361 4.26987 1.85579 4.52773C1.58796 4.78559 1.4375 5.13533 1.4375 5.5V16.5C1.4375 16.8647 1.58796 17.2144 1.85579 17.4723C2.12361 17.7301 2.48686 17.875 2.86562 17.875H20.0031C20.3818 17.875 20.7451 17.7301 21.0129 17.4723C21.2807 17.2144 21.4312 16.8647 21.4312 16.5V5.5C21.4312 5.13533 21.2807 4.78559 21.0129 4.52773C20.7451 4.26987 20.3818 4.125 20.0031 4.125ZM18.4321 5.5L11.4343 10.1612L4.43655 5.5H18.4321ZM2.86562 16.5V6.12562L11.0273 11.5637C11.1469 11.6436 11.2889 11.6864 11.4343 11.6864C11.5798 11.6864 11.7218 11.6436 11.8413 11.5637L20.0031 6.12562V16.5H2.86562Z" fill="black"/>
</svg>
