<svg width="50" height="50" viewBox="0 0 50 50" fill="none" xmlns="http://www.w3.org/2000/svg">
<g clip-path="url(#clip0_1_2)">
<rect width="50" height="50" rx="5" fill="#2C1B47"/>
<path d="M24.4252 25.55L23.8252 27.55C23.2502 29.45 22.9002 30.875 22.7252 31.825C22.6252 32.45 22.5752 32.95 22.6002 33.325C22.6002 33.575 22.6252 33.75 22.7002 33.875C22.7752 33.9 22.8502 33.9 22.9752 33.925C23.2502 33.975 23.6252 34 24.0752 34C24.4252 34 24.8502 34 25.3752 33.975C25.8752 33.95 26.1502 33.95 26.2002 33.95C26.6002 33.95 26.9252 34.275 26.9252 34.675C26.9252 35.075 26.6002 35.4 26.2002 35.4C26.1502 35.4 25.8752 35.4 25.3502 35.425C24.8252 35.45 24.4002 35.45 24.0752 35.45C23.0002 35.45 22.0502 35.375 21.6252 34.875C21.0252 34.175 21.0252 33 21.3002 31.575C21.4752 30.55 21.8502 29.075 22.4252 27.15C22.5502 26.775 23.5002 23.725 23.8002 22.625C24.2252 21.15 24.4002 20.175 24.3752 19.675C24.2752 18.3 23.8752 17.7 22.9502 17.825C22.7252 17.85 22.6002 17.85 22.5752 17.85C22.5252 17.975 22.4752 18.125 22.4502 18.325C22.3502 19.025 22.3502 19.975 22.3752 21.225C22.4002 21.85 22.4002 22.2 22.4002 22.25C22.4002 22.65 22.0752 22.975 21.6752 22.975C21.2752 22.975 20.9502 22.65 20.9502 22.25C20.9502 22.2 20.9502 21.85 20.9252 21.225C20.9002 19.95 20.9002 18.9 21.0252 18.075C21.2252 16.85 21.6502 16.55 22.7502 16.375C24.8502 16.1 25.7002 17.675 25.8252 19.575C25.9252 20.9 25.1252 23.35 24.4252 25.55Z" fill="#CCCCCC"/>
</g>
<rect x="0.5" y="0.5" width="49" height="49" rx="4.5" stroke="#2C1B47"/>
<defs>
<clipPath id="clip0_1_2">
<rect width="50" height="50" rx="5" fill="white"/>
</clipPath>
</defs>
</svg>
