<svg width="32" height="32" viewBox="0 0 32 32" fill="none" xmlns="http://www.w3.org/2000/svg">
<path d="M32 16C32 24.8366 24.8366 32 16 32C7.16344 32 0 24.8366 0 16C0 7.16344 7.16344 0 16 0C24.8366 0 32 7.16344 32 16Z" fill="#E36F59"/>
<path d="M12.38 10.2L10.54 10.76L10.82 10.36V21.64L10.54 21.28L12.38 21.76V23H6.8V21.76L8.62 21.28L8.36 21.64V10.36L8.7 10.76L6.8 10.3V9.06L12.38 8.96V10.2ZM15.9969 23V21.76L18.2569 21.24L17.7969 21.86V10.34L18.2969 10.74H14.8369L15.3969 10.26L14.9169 12.8H13.4369V8.96H24.6169V12.8H23.1369L22.6769 10.34L23.2169 10.74H19.7569L20.2569 10.34V21.86L19.8169 21.24L22.0569 21.76V23H15.9969Z" fill="white"/>
</svg>
