<svg width="500" height="300" viewBox="0 0 500 300" fill="none" xmlns="http://www.w3.org/2000/svg">
<g clip-path="url(#clip0_4738_5169)">
<rect width="500" height="300" rx="8" fill="white"/>
<rect width="500" height="300" rx="8" fill="#E36F59"/>
<path d="M181 19C181 88.0356 125.036 144 56 144C-13.0356 144 -69 88.0356 -69 19C-69 -50.0356 -13.0356 -106 56 -106C125.036 -106 181 -50.0356 181 19Z" fill="#A2D8FF"/>
<circle cx="443" cy="244" r="100" fill="#92E3A9"/>
<circle cx="462.5" cy="36.5" r="62.5" fill="#FFDD95"/>
<circle cx="89" cy="241" r="50" fill="#F3A9E7"/>
<rect x="52.5" y="52.5" width="395" height="195" rx="5.5" stroke="white" stroke-width="5"/>
<path d="M146.603 144.36C144.571 144.36 142.603 143.976 140.699 143.208L141.923 139.776C142.627 140.016 143.355 140.216 144.107 140.376C144.875 140.52 145.587 140.592 146.243 140.592C146.803 140.592 147.291 140.536 147.707 140.424C148.139 140.296 148.475 140.096 148.715 139.824C148.971 139.536 149.099 139.168 149.099 138.72C149.099 138.32 149.011 137.992 148.835 137.736C148.659 137.48 148.387 137.296 148.019 137.184C147.651 137.056 147.179 136.992 146.603 136.992H144.683V133.584H146.387C147.155 133.584 147.747 133.448 148.163 133.176C148.579 132.888 148.787 132.432 148.787 131.808C148.787 131.2 148.579 130.768 148.163 130.512C147.763 130.24 147.211 130.104 146.507 130.104C146.203 130.104 145.835 130.144 145.403 130.224C144.987 130.304 144.563 130.408 144.131 130.536L144.779 129.96L144.419 132.336H141.539L141.323 127.632C142.363 127.312 143.395 127.064 144.419 126.888C145.443 126.696 146.443 126.6 147.419 126.6C148.635 126.6 149.715 126.752 150.659 127.056C151.619 127.344 152.371 127.808 152.915 128.448C153.475 129.088 153.755 129.936 153.755 130.992C153.755 131.872 153.555 132.616 153.155 133.224C152.755 133.832 152.211 134.304 151.523 134.64C150.851 134.976 150.091 135.184 149.243 135.264L149.219 134.856C150.963 134.952 152.211 135.352 152.963 136.056C153.715 136.744 154.091 137.704 154.091 138.936C154.091 140.168 153.747 141.192 153.059 142.008C152.371 142.808 151.459 143.4 150.323 143.784C149.187 144.168 147.947 144.36 146.603 144.36ZM157.025 148.44L156.905 141.48L160.073 140.712L157.865 141.48C158.329 141.128 158.729 140.744 159.065 140.328C159.417 139.896 159.705 139.384 159.929 138.792C160.153 138.184 160.321 137.456 160.433 136.608C160.545 135.744 160.601 134.704 160.601 133.488L161.825 134.472L159.161 133.44V131.04H171.905V133.44L169.697 134.424L170.585 133.488V141.48L169.697 140.808L172.865 141.576L172.745 148.44H169.865L168.953 143.448L170.009 144H159.761L160.817 143.448L159.905 148.44H157.025ZM161.945 141.24L161.921 140.52H166.505L165.785 141.24V133.488L166.505 134.52H163.121L163.961 133.488C163.961 134.688 163.921 135.776 163.841 136.752C163.777 137.728 163.601 138.592 163.313 139.344C163.025 140.08 162.569 140.712 161.945 141.24ZM181.575 144.36C180.327 144.36 179.231 144.112 178.287 143.616C177.359 143.12 176.639 142.384 176.127 141.408C175.615 140.432 175.359 139.224 175.359 137.784C175.359 136.296 175.631 135.024 176.175 133.968C176.735 132.912 177.519 132.104 178.527 131.544C179.535 130.968 180.735 130.68 182.127 130.68C183.487 130.68 184.583 130.936 185.415 131.448C186.263 131.96 186.879 132.656 187.263 133.536C187.647 134.416 187.839 135.408 187.839 136.512C187.839 136.864 187.823 137.224 187.791 137.592C187.759 137.944 187.703 138.304 187.623 138.672H179.319V136.2H183.639L182.895 136.728C182.911 136.12 182.887 135.616 182.823 135.216C182.759 134.816 182.639 134.52 182.463 134.328C182.303 134.136 182.055 134.04 181.719 134.04C181.287 134.04 180.967 134.192 180.759 134.496C180.567 134.784 180.439 135.16 180.375 135.624C180.311 136.072 180.279 136.544 180.279 137.04C180.279 137.712 180.335 138.344 180.447 138.936C180.559 139.512 180.791 139.984 181.143 140.352C181.495 140.704 182.023 140.88 182.727 140.88C183.191 140.88 183.703 140.8 184.263 140.64C184.839 140.464 185.439 140.216 186.063 139.896L187.623 142.368C186.647 143.04 185.647 143.544 184.623 143.88C183.599 144.2 182.583 144.36 181.575 144.36ZM197.242 144.36C196.058 144.36 194.986 144.096 194.026 143.568C193.082 143.04 192.338 142.272 191.794 141.264C191.25 140.256 190.978 139.032 190.978 137.592C190.978 136.232 191.178 135.112 191.578 134.232C191.994 133.336 192.538 132.632 193.21 132.12C193.898 131.592 194.65 131.224 195.466 131.016C196.282 130.792 197.106 130.68 197.938 130.68C198.85 130.68 199.722 130.792 200.554 131.016C201.386 131.224 202.026 131.416 202.474 131.592L202.354 135.624H199.354L198.97 133.944L199.306 134.136C199.21 134.12 199.042 134.104 198.802 134.088C198.578 134.056 198.338 134.04 198.082 134.04C197.538 134.04 197.106 134.176 196.786 134.448C196.482 134.72 196.266 135.104 196.138 135.6C196.026 136.096 195.97 136.672 195.97 137.328C195.97 138.128 196.058 138.792 196.234 139.32C196.426 139.848 196.698 140.24 197.05 140.496C197.418 140.752 197.85 140.88 198.346 140.88C198.778 140.88 199.258 140.792 199.786 140.616C200.314 140.44 200.89 140.176 201.514 139.824L203.05 142.2C202.106 142.936 201.146 143.48 200.17 143.832C199.21 144.184 198.234 144.36 197.242 144.36ZM205.804 144V141.6L207.412 140.952L207.124 141.312V133.392L207.604 134.256L205.804 133.536V131.136L213.604 130.944V133.344L211.204 134.112L211.924 133.392V135.552L211.204 134.976H213.556C215.188 134.976 216.46 135.328 217.372 136.032C218.284 136.736 218.74 137.848 218.74 139.368C218.74 140.872 218.244 142.024 217.252 142.824C216.26 143.608 214.668 144 212.476 144H205.804ZM211.924 141.504L211.204 140.88H212.332C212.892 140.88 213.3 140.768 213.556 140.544C213.812 140.32 213.94 139.952 213.94 139.44C213.94 138.96 213.82 138.616 213.58 138.408C213.356 138.2 212.98 138.096 212.452 138.096H211.204L211.924 137.52V141.504ZM232.315 135.36H232.939V141.816L232.555 140.952L234.019 141.6V144H227.971V141.6L229.771 140.88L229.291 141.816V133.152L229.987 134.352L227.971 133.536V131.136L234.475 130.944L237.523 138.432H235.435L238.531 131.136L244.891 130.944V133.344L242.827 134.28L243.571 133.08V141.768L243.115 140.88L244.891 141.6V144H238.459V141.6L239.899 140.904L239.419 141.576V134.928H240.139L237.211 141.744L235.123 141.816L232.315 135.36ZM254.901 130.68C256.949 130.68 258.525 131.248 259.629 132.384C260.749 133.52 261.309 135.152 261.309 137.28C261.309 138.768 261.029 140.04 260.469 141.096C259.925 142.152 259.141 142.96 258.117 143.52C257.093 144.08 255.869 144.36 254.445 144.36C252.397 144.36 250.829 143.784 249.741 142.632C248.653 141.48 248.109 139.848 248.109 137.736C248.109 136.248 248.373 134.984 248.901 133.944C249.445 132.888 250.221 132.08 251.229 131.52C252.237 130.96 253.461 130.68 254.901 130.68ZM254.685 134.04C254.093 134.04 253.677 134.296 253.437 134.808C253.213 135.32 253.101 136.224 253.101 137.52C253.101 138.816 253.213 139.72 253.437 140.232C253.677 140.744 254.093 141 254.685 141C255.101 141 255.421 140.888 255.645 140.664C255.885 140.424 256.053 140.048 256.149 139.536C256.261 139.008 256.317 138.32 256.317 137.472C256.317 136.192 256.197 135.304 255.957 134.808C255.717 134.296 255.293 134.04 254.685 134.04ZM276.672 131.04L276.504 137.016H273.624L273.168 133.968L273.768 134.52H270.456L270.672 134.088V141.6L270.168 140.928L272.352 141.6V144H264.552V141.6L266.28 140.928L265.872 141.6V133.512L266.352 134.256L264.552 133.536V131.136L269.616 131.04H276.672ZM280.506 144.288C280.122 144.288 279.706 144.248 279.258 144.168C278.826 144.088 278.354 143.968 277.842 143.808L278.538 140.136C278.714 140.168 278.874 140.192 279.018 140.208C279.162 140.224 279.298 140.232 279.426 140.232C280.162 140.232 280.706 139.968 281.058 139.44C281.426 138.912 281.666 138.12 281.778 137.064C281.906 135.992 281.97 134.656 281.97 133.056L283.194 134.472L280.53 133.44V131.04H293.274V133.44L291.066 134.424L291.954 132.936V141.312L291.666 140.952L293.274 141.6V144H285.834V141.6L287.442 140.952L287.154 141.312V133.176L287.874 134.52H284.226L285.57 133.248C285.554 134.896 285.474 136.4 285.33 137.76C285.186 139.104 284.93 140.264 284.562 141.24C284.194 142.216 283.682 142.968 283.026 143.496C282.37 144.024 281.53 144.288 280.506 144.288ZM308.561 141.672L307.937 140.736L309.881 141.6V144L304.817 144.24L304.217 141.984L304.505 142.056C303.961 142.808 303.337 143.384 302.633 143.784C301.945 144.168 301.177 144.36 300.329 144.36C299.161 144.36 298.233 143.992 297.545 143.256C296.857 142.52 296.513 141.536 296.513 140.304C296.513 139.424 296.705 138.704 297.089 138.144C297.473 137.584 298.057 137.168 298.841 136.896C299.641 136.624 300.657 136.488 301.889 136.488H304.001L303.761 136.728V135.864C303.761 135.256 303.633 134.824 303.377 134.568C303.121 134.296 302.705 134.16 302.129 134.16C301.889 134.16 301.617 134.176 301.313 134.208C301.009 134.24 300.689 134.296 300.353 134.376L300.713 133.944L300.329 135.648H297.449L297.257 131.64C298.505 131.32 299.641 131.08 300.665 130.92C301.705 130.76 302.641 130.68 303.473 130.68C305.185 130.68 306.457 131.032 307.289 131.736C308.137 132.44 308.561 133.52 308.561 134.976V141.672ZM301.313 139.728C301.313 140.176 301.409 140.504 301.601 140.712C301.809 140.92 302.065 141.024 302.369 141.024C302.625 141.024 302.889 140.96 303.161 140.832C303.433 140.688 303.681 140.488 303.905 140.232L303.761 140.76V138.384L304.025 138.648H302.681C302.185 138.648 301.833 138.728 301.625 138.888C301.417 139.048 301.313 139.328 301.313 139.728ZM325.874 144.336C324.338 144.336 323.074 143.976 322.082 143.256C321.09 142.52 320.354 141.488 319.874 140.16C319.394 138.816 319.154 137.232 319.154 135.408C319.154 133.92 319.322 132.536 319.658 131.256C319.994 129.96 320.546 128.824 321.314 127.848C322.082 126.872 323.098 126.112 324.362 125.568C325.642 125.008 327.21 124.728 329.066 124.728L328.202 125.472L328.73 123.744H331.706L331.73 128.688C330.226 128.688 328.994 128.728 328.034 128.808C327.074 128.872 326.322 129.008 325.778 129.216C325.25 129.424 324.866 129.728 324.626 130.128C324.402 130.528 324.258 131.056 324.194 131.712C324.146 132.368 324.122 133.192 324.122 134.184C324.122 135.16 324.138 136.008 324.17 136.728C324.202 137.448 324.258 138.064 324.338 138.576C324.434 139.072 324.554 139.472 324.698 139.776C324.858 140.064 325.05 140.28 325.274 140.424C325.498 140.552 325.762 140.616 326.066 140.616C326.674 140.616 327.106 140.392 327.362 139.944C327.618 139.496 327.746 138.848 327.746 138C327.746 137.264 327.658 136.664 327.482 136.2C327.322 135.72 327.098 135.368 326.81 135.144C326.522 134.904 326.178 134.784 325.778 134.784C325.474 134.784 325.146 134.848 324.794 134.976C324.458 135.104 324.106 135.288 323.738 135.528L323.546 132.528C324.218 132.08 324.898 131.744 325.586 131.52C326.274 131.296 326.938 131.184 327.578 131.184C328.538 131.184 329.402 131.424 330.17 131.904C330.954 132.368 331.578 133.056 332.042 133.968C332.506 134.88 332.738 136 332.738 137.328C332.738 138.816 332.442 140.088 331.85 141.144C331.258 142.184 330.442 142.976 329.402 143.52C328.378 144.064 327.202 144.336 325.874 144.336ZM355.407 133.368V141.312L355.119 140.952L356.727 141.6V144H349.287V141.6L350.895 140.952L350.607 141.312V133.392L351.087 134.256L349.287 133.536V131.136L356.727 130.944V133.344L354.687 134.112L355.407 133.368ZM335.943 144V141.6L337.551 140.952L337.263 141.312V133.392L337.743 134.256L335.943 133.536V131.136L343.743 130.944V133.344L341.343 134.112L342.063 133.392V135.552L341.343 134.976H343.695C345.327 134.976 346.599 135.328 347.511 136.032C348.423 136.736 348.879 137.848 348.879 139.368C348.879 140.872 348.383 142.024 347.391 142.824C346.399 143.608 344.807 144 342.615 144H335.943ZM342.063 141.504L341.343 140.88H342.471C342.951 140.88 343.303 140.768 343.527 140.544C343.767 140.32 343.887 139.952 343.887 139.44C343.887 138.96 343.783 138.616 343.575 138.408C343.367 138.2 343.039 138.096 342.591 138.096H341.343L342.063 137.52V141.504ZM116.087 173.336C114.551 173.336 113.287 172.976 112.295 172.256C111.303 171.52 110.567 170.488 110.087 169.16C109.607 167.816 109.367 166.232 109.367 164.408C109.367 162.92 109.535 161.536 109.871 160.256C110.207 158.96 110.759 157.824 111.527 156.848C112.295 155.872 113.311 155.112 114.575 154.568C115.855 154.008 117.423 153.728 119.279 153.728L118.415 154.472L118.943 152.744H121.919L121.943 157.688C120.439 157.688 119.207 157.728 118.247 157.808C117.287 157.872 116.535 158.008 115.991 158.216C115.463 158.424 115.079 158.728 114.839 159.128C114.615 159.528 114.471 160.056 114.407 160.712C114.359 161.368 114.335 162.192 114.335 163.184C114.335 164.16 114.351 165.008 114.383 165.728C114.415 166.448 114.471 167.064 114.551 167.576C114.647 168.072 114.767 168.472 114.911 168.776C115.071 169.064 115.263 169.28 115.487 169.424C115.711 169.552 115.975 169.616 116.279 169.616C116.887 169.616 117.319 169.392 117.575 168.944C117.831 168.496 117.959 167.848 117.959 167C117.959 166.264 117.871 165.664 117.695 165.2C117.535 164.72 117.311 164.368 117.023 164.144C116.735 163.904 116.391 163.784 115.991 163.784C115.687 163.784 115.359 163.848 115.007 163.976C114.671 164.104 114.319 164.288 113.951 164.528L113.759 161.528C114.431 161.08 115.111 160.744 115.799 160.52C116.487 160.296 117.151 160.184 117.791 160.184C118.751 160.184 119.615 160.424 120.383 160.904C121.167 161.368 121.791 162.056 122.255 162.968C122.719 163.88 122.951 165 122.951 166.328C122.951 167.816 122.655 169.088 122.063 170.144C121.471 171.184 120.655 171.976 119.615 172.52C118.591 173.064 117.415 173.336 116.087 173.336ZM145.62 162.368V170.312L145.332 169.952L146.94 170.6V173H139.5V170.6L141.108 169.952L140.82 170.312V162.392L141.3 163.256L139.5 162.536V160.136L146.94 159.944V162.344L144.9 163.112L145.62 162.368ZM126.156 173V170.6L127.764 169.952L127.476 170.312V162.392L127.956 163.256L126.156 162.536V160.136L133.956 159.944V162.344L131.556 163.112L132.276 162.392V164.552L131.556 163.976H133.908C135.54 163.976 136.812 164.328 137.724 165.032C138.636 165.736 139.092 166.848 139.092 168.368C139.092 169.872 138.596 171.024 137.604 171.824C136.612 172.608 135.02 173 132.828 173H126.156ZM132.276 170.504L131.556 169.88H132.684C133.164 169.88 133.516 169.768 133.74 169.544C133.98 169.32 134.1 168.952 134.1 168.44C134.1 167.96 133.996 167.616 133.788 167.408C133.58 167.2 133.252 167.096 132.804 167.096H131.556L132.276 166.52V170.504ZM152.73 173V170.6L155.298 169.832L154.41 171.008V162.824L155.418 163.52H152.682L153.594 162.632L152.922 165.2H150.042V160.04H163.578V165.2H160.698L160.074 162.824L160.914 163.52H158.226L159.21 162.824V171.008L158.394 169.832L160.89 170.6V173H152.73ZM166.699 173V170.6L168.307 169.952L168.019 170.312V162.392L168.499 163.256L166.699 162.536V160.136L174.499 159.944V162.344L172.099 163.112L172.819 162.392V164.552L172.099 163.976H174.451C176.083 163.976 177.355 164.328 178.267 165.032C179.179 165.736 179.635 166.848 179.635 168.368C179.635 169.872 179.139 171.024 178.147 171.824C177.155 172.608 175.563 173 173.371 173H166.699ZM172.819 170.504L172.099 169.88H173.227C173.787 169.88 174.195 169.768 174.451 169.544C174.707 169.32 174.835 168.952 174.835 168.44C174.835 167.96 174.715 167.616 174.475 167.408C174.251 167.2 173.875 167.096 173.347 167.096H172.099L172.819 166.52V170.504ZM194.986 160.04H196.306C197.362 160.04 198.298 160.128 199.114 160.304C199.946 160.48 200.594 160.808 201.058 161.288C201.522 161.752 201.754 162.432 201.754 163.328C201.754 164.192 201.522 164.84 201.058 165.272C200.61 165.704 199.986 166 199.186 166.16C198.386 166.32 197.458 166.432 196.402 166.496L196.69 166.016C197.378 166 198.05 166.032 198.706 166.112C199.362 166.176 199.954 166.328 200.482 166.568C201.026 166.792 201.45 167.128 201.754 167.576C202.074 168.008 202.234 168.592 202.234 169.328C202.234 170.64 201.698 171.584 200.626 172.16C199.554 172.72 198.05 173 196.114 173H188.866V170.6L190.474 169.952L190.186 170.312V162.896L190.426 163.136L188.866 162.536V160.136L194.986 160.04ZM195.346 163.088H194.266L194.986 162.392V165.632L194.266 165.104H195.226C195.834 165.104 196.274 165.048 196.546 164.936C196.818 164.808 196.954 164.52 196.954 164.072C196.954 163.624 196.826 163.352 196.57 163.256C196.314 163.144 195.906 163.088 195.346 163.088ZM195.466 169.88C196.074 169.88 196.522 169.808 196.81 169.664C197.098 169.52 197.242 169.192 197.242 168.68C197.242 168.248 197.138 167.944 196.93 167.768C196.738 167.576 196.41 167.48 195.946 167.48H194.266L194.986 166.904V170.504L194.266 169.88H195.466ZM217.326 170.672L216.702 169.736L218.646 170.6V173L213.582 173.24L212.982 170.984L213.27 171.056C212.726 171.808 212.102 172.384 211.398 172.784C210.71 173.168 209.942 173.36 209.094 173.36C207.926 173.36 206.998 172.992 206.31 172.256C205.622 171.52 205.278 170.536 205.278 169.304C205.278 168.424 205.47 167.704 205.854 167.144C206.238 166.584 206.822 166.168 207.606 165.896C208.406 165.624 209.422 165.488 210.654 165.488H212.766L212.526 165.728V164.864C212.526 164.256 212.398 163.824 212.142 163.568C211.886 163.296 211.47 163.16 210.894 163.16C210.654 163.16 210.382 163.176 210.078 163.208C209.774 163.24 209.454 163.296 209.118 163.376L209.478 162.944L209.094 164.648H206.214L206.022 160.64C207.27 160.32 208.406 160.08 209.43 159.92C210.47 159.76 211.406 159.68 212.238 159.68C213.95 159.68 215.222 160.032 216.054 160.736C216.902 161.44 217.326 162.52 217.326 163.976V170.672ZM210.078 168.728C210.078 169.176 210.174 169.504 210.366 169.712C210.574 169.92 210.83 170.024 211.134 170.024C211.39 170.024 211.654 169.96 211.926 169.832C212.198 169.688 212.446 169.488 212.67 169.232L212.526 169.76V167.384L212.79 167.648H211.446C210.95 167.648 210.598 167.728 210.39 167.888C210.182 168.048 210.078 168.328 210.078 168.728ZM221.627 173V170.6L223.835 169.712L222.947 171.2V162.056L224.171 163.568L221.627 162.536V160.136L228.707 159.944V162.344L226.763 163.328L227.747 161.936V170.96L226.547 169.52H231.491L230.339 170.96V162.056L231.059 163.256L229.379 162.536V160.136L236.099 159.944V162.344L234.251 163.328L235.139 161.936V171.2L234.107 169.52H238.931L237.731 170.96V162.056L238.451 163.256L236.771 162.536V160.136L243.851 159.944V162.344L241.643 163.328L242.531 161.936V171.2L241.643 169.712L243.851 170.6V173H221.627ZM259.134 170.672L258.51 169.736L260.454 170.6V173L255.39 173.24L254.79 170.984L255.078 171.056C254.534 171.808 253.91 172.384 253.206 172.784C252.518 173.168 251.75 173.36 250.902 173.36C249.734 173.36 248.806 172.992 248.118 172.256C247.43 171.52 247.086 170.536 247.086 169.304C247.086 168.424 247.278 167.704 247.662 167.144C248.046 166.584 248.63 166.168 249.414 165.896C250.214 165.624 251.23 165.488 252.462 165.488H254.574L254.334 165.728V164.864C254.334 164.256 254.206 163.824 253.95 163.568C253.694 163.296 253.278 163.16 252.702 163.16C252.462 163.16 252.19 163.176 251.886 163.208C251.582 163.24 251.262 163.296 250.926 163.376L251.286 162.944L250.902 164.648H248.022L247.83 160.64C249.078 160.32 250.214 160.08 251.238 159.92C252.278 159.76 253.214 159.68 254.046 159.68C255.758 159.68 257.03 160.032 257.862 160.736C258.71 161.44 259.134 162.52 259.134 163.976V170.672ZM251.886 168.728C251.886 169.176 251.982 169.504 252.174 169.712C252.382 169.92 252.638 170.024 252.942 170.024C253.198 170.024 253.462 169.96 253.734 169.832C254.006 169.688 254.254 169.488 254.478 169.232L254.334 169.76V167.384L254.598 167.648H253.254C252.758 167.648 252.406 167.728 252.198 167.888C251.99 168.048 251.886 168.328 251.886 168.728ZM269.51 178.52V176.12L271.406 175.28L270.83 176.024V162.68L271.334 163.256L269.51 162.536V160.136L274.574 159.896L275.078 162.008L274.574 161.72C275.326 161.064 276.046 160.56 276.734 160.208C277.438 159.856 278.19 159.68 278.99 159.68C279.934 159.68 280.758 159.928 281.462 160.424C282.166 160.904 282.718 161.624 283.118 162.584C283.518 163.528 283.718 164.696 283.718 166.088C283.718 167.72 283.438 169.072 282.878 170.144C282.334 171.216 281.566 172.024 280.574 172.568C279.598 173.096 278.462 173.36 277.166 173.36C276.83 173.36 276.486 173.336 276.134 173.288C275.798 173.256 275.446 173.208 275.078 173.144L275.63 172.64V176.024L275.198 175.376L277.19 176.12V178.52H269.51ZM276.494 170C277.358 170 277.942 169.688 278.246 169.064C278.566 168.44 278.726 167.616 278.726 166.592C278.726 165.904 278.662 165.304 278.534 164.792C278.422 164.28 278.246 163.88 278.006 163.592C277.766 163.304 277.446 163.16 277.046 163.16C276.758 163.16 276.454 163.24 276.134 163.4C275.814 163.56 275.462 163.8 275.078 164.12L275.63 162.944V170.672L275.078 169.808C275.622 169.936 276.094 170 276.494 170ZM293.032 173.36C291.784 173.36 290.688 173.112 289.744 172.616C288.816 172.12 288.096 171.384 287.584 170.408C287.072 169.432 286.816 168.224 286.816 166.784C286.816 165.296 287.088 164.024 287.632 162.968C288.192 161.912 288.976 161.104 289.984 160.544C290.992 159.968 292.192 159.68 293.584 159.68C294.944 159.68 296.04 159.936 296.872 160.448C297.72 160.96 298.336 161.656 298.72 162.536C299.104 163.416 299.296 164.408 299.296 165.512C299.296 165.864 299.28 166.224 299.248 166.592C299.216 166.944 299.16 167.304 299.08 167.672H290.776V165.2H295.096L294.352 165.728C294.368 165.12 294.344 164.616 294.28 164.216C294.216 163.816 294.096 163.52 293.92 163.328C293.76 163.136 293.512 163.04 293.176 163.04C292.744 163.04 292.424 163.192 292.216 163.496C292.024 163.784 291.896 164.16 291.832 164.624C291.768 165.072 291.736 165.544 291.736 166.04C291.736 166.712 291.792 167.344 291.904 167.936C292.016 168.512 292.248 168.984 292.6 169.352C292.952 169.704 293.48 169.88 294.184 169.88C294.648 169.88 295.16 169.8 295.72 169.64C296.296 169.464 296.896 169.216 297.52 168.896L299.08 171.368C298.104 172.04 297.104 172.544 296.08 172.88C295.056 173.2 294.04 173.36 293.032 173.36ZM302.627 173V170.6L304.475 169.88L303.947 170.72V162.344L304.595 163.256L302.627 162.536V160.136L309.755 159.944V162.344L308.363 163.04L308.747 162.344V165.512L308.003 164.552H311.003L309.563 165.368L311.627 162.464L311.963 162.92L310.619 162.56V160.16L316.955 159.92V162.32L315.131 162.824L316.331 162.128L313.091 166.616L313.571 165.464L316.115 170.624L315.491 170.048L317.147 170.6V173H312.371L309.971 167.6L310.595 167.672H308.003L308.747 167.6V170.72L308.315 169.856L309.947 170.6V173H302.627ZM322.822 173.288C322.438 173.288 322.022 173.248 321.574 173.168C321.142 173.088 320.67 172.968 320.158 172.808L320.854 169.136C321.03 169.168 321.19 169.192 321.334 169.208C321.478 169.224 321.614 169.232 321.742 169.232C322.478 169.232 323.022 168.968 323.374 168.44C323.742 167.912 323.982 167.12 324.094 166.064C324.222 164.992 324.286 163.656 324.286 162.056L325.51 163.472L322.846 162.44V160.04H335.59V162.44L333.382 163.424L334.27 161.936V170.312L333.982 169.952L335.59 170.6V173H328.15V170.6L329.758 169.952L329.47 170.312V162.176L330.19 163.52H326.542L327.886 162.248C327.87 163.896 327.79 165.4 327.646 166.76C327.502 168.104 327.246 169.264 326.878 170.24C326.51 171.216 325.998 171.968 325.342 172.496C324.686 173.024 323.846 173.288 322.822 173.288ZM350.878 170.672L350.254 169.736L352.198 170.6V173L347.134 173.24L346.534 170.984L346.822 171.056C346.278 171.808 345.654 172.384 344.95 172.784C344.262 173.168 343.494 173.36 342.646 173.36C341.478 173.36 340.55 172.992 339.862 172.256C339.174 171.52 338.83 170.536 338.83 169.304C338.83 168.424 339.022 167.704 339.406 167.144C339.79 166.584 340.374 166.168 341.158 165.896C341.958 165.624 342.974 165.488 344.206 165.488H346.318L346.078 165.728V164.864C346.078 164.256 345.95 163.824 345.694 163.568C345.438 163.296 345.022 163.16 344.446 163.16C344.206 163.16 343.934 163.176 343.63 163.208C343.326 163.24 343.006 163.296 342.67 163.376L343.03 162.944L342.646 164.648H339.766L339.574 160.64C340.822 160.32 341.958 160.08 342.982 159.92C344.022 159.76 344.958 159.68 345.79 159.68C347.502 159.68 348.774 160.032 349.606 160.736C350.454 161.44 350.878 162.52 350.878 163.976V170.672ZM343.63 168.728C343.63 169.176 343.726 169.504 343.918 169.712C344.126 169.92 344.382 170.024 344.686 170.024C344.942 170.024 345.206 169.96 345.478 169.832C345.75 169.688 345.998 169.488 346.222 169.232L346.078 169.76V167.384L346.342 167.648H344.998C344.502 167.648 344.15 167.728 343.942 167.888C343.734 168.048 343.63 168.328 343.63 168.728ZM359.522 164.36H360.146V170.816L359.762 169.952L361.226 170.6V173H355.178V170.6L356.978 169.88L356.498 170.816V162.152L357.194 163.352L355.178 162.536V160.136L361.682 159.944L364.73 167.432H362.642L365.738 160.136L372.098 159.944V162.344L370.034 163.28L370.778 162.08V170.768L370.322 169.88L372.098 170.6V173H365.666V170.6L367.106 169.904L366.626 170.576V163.928H367.346L364.418 170.744L362.33 170.816L359.522 164.36ZM387.388 170.672L386.764 169.736L388.708 170.6V173L383.644 173.24L383.044 170.984L383.332 171.056C382.788 171.808 382.164 172.384 381.46 172.784C380.772 173.168 380.004 173.36 379.156 173.36C377.988 173.36 377.06 172.992 376.372 172.256C375.684 171.52 375.34 170.536 375.34 169.304C375.34 168.424 375.532 167.704 375.916 167.144C376.3 166.584 376.884 166.168 377.668 165.896C378.468 165.624 379.484 165.488 380.716 165.488H382.828L382.588 165.728V164.864C382.588 164.256 382.46 163.824 382.204 163.568C381.948 163.296 381.532 163.16 380.956 163.16C380.716 163.16 380.444 163.176 380.14 163.208C379.836 163.24 379.516 163.296 379.18 163.376L379.54 162.944L379.156 164.648H376.276L376.084 160.64C377.332 160.32 378.468 160.08 379.492 159.92C380.532 159.76 381.468 159.68 382.3 159.68C384.012 159.68 385.284 160.032 386.116 160.736C386.964 161.44 387.388 162.52 387.388 163.976V170.672ZM380.14 168.728C380.14 169.176 380.236 169.504 380.428 169.712C380.636 169.92 380.892 170.024 381.196 170.024C381.452 170.024 381.716 169.96 381.988 169.832C382.26 169.688 382.508 169.488 382.732 169.232L382.588 169.76V167.384L382.852 167.648H381.508C381.012 167.648 380.66 167.728 380.452 167.888C380.244 168.048 380.14 168.328 380.14 168.728Z" fill="white"/>
</g>
<defs>
<clipPath id="clip0_4738_5169">
<rect width="500" height="300" rx="8" fill="white"/>
</clipPath>
</defs>
</svg>
