<svg width="276" height="214" viewBox="0 0 276 214" fill="none" xmlns="http://www.w3.org/2000/svg">
<g clip-path="url(#clip0_7_5240)">
<path d="M101.064 157.543C70.1815 148.063 -0.453217 125.815 13.0134 63.3913C28.5517 -8.70584 114.142 40.1757 166.649 15.7994C203.811 -1.48323 281.374 -19.6687 275.676 58.2967C270.108 134.134 266.936 189.013 221.875 202.039C176.749 215.066 147.679 171.859 101.064 157.543Z" fill="#F7F5F5"/>
<path opacity="0.3" d="M7.89868 213.196H275.676" stroke="#263238" stroke-miterlimit="10" stroke-linecap="round" stroke-linejoin="round"/>
<path d="M53.7368 139.68C57.6862 142.904 56.3266 161.864 68.4983 153.738C80.6052 145.613 59.9522 140.776 61.1175 136.133C62.8009 129.684 90.1225 137.423 85.5257 125.041C80.9289 112.66 64.6137 131.297 60.2759 126.654C56.3265 122.397 76.0085 107.049 66.8149 104.47C57.6214 101.89 59.6284 124.074 53.7368 124.074C49.1401 124.074 49.9817 102.858 41.5651 110.403C33.1485 117.883 51.6003 125.299 49.1401 129.942C47.3273 133.489 32.76 124.719 33.4075 132.909C34.0549 141.034 49.5933 136.327 53.7368 139.68Z" fill="#75B687"/>
<path d="M56.3265 130.007C56.3265 130.007 47.4567 140.712 48.4926 169.731" stroke="#263238" stroke-miterlimit="10" stroke-linecap="round" stroke-linejoin="round"/>
<path d="M73.613 145.097C72.0591 141.937 59.0457 139.809 66.4912 132.973C73.9367 126.138 73.8719 140.776 77.2386 140.712C81.9001 140.647 80.9937 121.108 88.6334 126.138C96.2731 131.168 81.0584 139.164 83.5187 142.775C85.7847 146.064 99.2512 135.359 99.5102 141.937C99.8339 148.515 85.1372 143.614 84.2308 147.612C83.5187 150.707 97.9564 153.48 91.5468 157.93C85.1372 162.38 83.0655 148.837 79.5693 149.74C76.9149 150.385 80.4757 161.541 75.102 159.8C69.7284 158.059 75.2315 148.45 73.613 145.097Z" fill="#75B687"/>
<path opacity="0.3" d="M73.613 145.097C72.0591 141.937 59.0457 139.809 66.4912 132.973C73.9367 126.138 73.8719 140.776 77.2386 140.712C81.9001 140.647 80.9937 121.108 88.6334 126.138C96.2731 131.168 81.0584 139.164 83.5187 142.775C85.7847 146.064 99.2512 135.359 99.5102 141.937C99.8339 148.515 85.1372 143.614 84.2308 147.612C83.5187 150.707 97.9564 153.48 91.5468 157.93C85.1372 162.38 83.0655 148.837 79.5693 149.74C76.9149 150.385 80.4757 161.541 75.102 159.8C69.7284 158.059 75.2315 148.45 73.613 145.097Z" fill="black"/>
<path d="M80.2815 145.226C80.2815 145.226 55.0964 142.646 52.6362 169.667" stroke="#263238" stroke-miterlimit="10" stroke-linecap="round" stroke-linejoin="round"/>
<path d="M32.3069 142.324C28.3575 145.548 29.7171 164.508 17.5454 156.382C5.43845 148.257 26.0915 143.42 24.9261 138.777C23.2428 132.328 -4.07879 140.067 0.517969 127.685C5.11473 115.304 21.43 133.941 25.7678 129.297C29.7171 125.041 10.0352 109.693 19.2287 107.114C28.4223 104.534 26.4152 126.718 32.3069 126.718C36.9036 126.718 36.062 105.502 44.4786 113.047C52.8952 120.527 34.4434 127.943 36.9036 132.586C38.7164 136.133 53.2836 127.363 52.6362 135.553C51.924 143.614 36.3857 138.906 32.3069 142.324Z" fill="#75B687"/>
<path opacity="0.3" d="M32.3069 142.324C28.3575 145.548 29.7171 164.508 17.5454 156.382C5.43845 148.257 26.0915 143.42 24.9261 138.777C23.2428 132.328 -4.07879 140.067 0.517969 127.685C5.11473 115.304 21.43 133.941 25.7678 129.297C29.7171 125.041 10.0352 109.693 19.2287 107.114C28.4223 104.534 26.4152 126.718 32.3069 126.718C36.9036 126.718 36.062 105.502 44.4786 113.047C52.8952 120.527 34.4434 127.943 36.9036 132.586C38.7164 136.133 53.2836 127.363 52.6362 135.553C51.924 143.614 36.3857 138.906 32.3069 142.324Z" fill="white"/>
<path d="M29.5229 132.651C29.5229 132.651 40.9824 147.87 43.6369 173.342" stroke="#263238" stroke-miterlimit="10" stroke-linecap="round" stroke-linejoin="round"/>
<path d="M37.6805 213.131H55.5496C58.981 213.131 61.8297 210.552 62.0887 207.134L64.8727 174.245C65.1964 170.441 62.1534 167.152 58.3336 167.152H34.8966C31.012 167.152 28.0338 170.441 28.3575 174.245L31.1415 207.134C31.4652 210.487 34.3139 213.131 37.6805 213.131Z" fill="#70CAFC" stroke="#263238" stroke-miterlimit="10" stroke-linecap="round" stroke-linejoin="round"/>
<path d="M171.505 165.862C165.548 165.862 148.262 161.993 148.262 161.993H194.683C194.747 161.993 177.461 165.862 171.505 165.862Z" fill="#263238" stroke="#263238" stroke-miterlimit="10" stroke-linecap="round" stroke-linejoin="round"/>
<path d="M176.814 163.927H166.196V171.214H176.814V163.927Z" fill="#858585" stroke="#263238" stroke-miterlimit="10" stroke-linecap="round" stroke-linejoin="round"/>
<path d="M178.432 171.214H164.642V202.491H178.432V171.214Z" fill="#999999" stroke="#263238" stroke-miterlimit="10" stroke-linecap="round" stroke-linejoin="round"/>
<path d="M197.402 152.706C193.841 152.706 192.028 152.706 188.467 152.706C189.438 146.58 190.215 140.26 190.669 134.07C194.229 134.07 196.042 134.07 199.603 134.07C199.15 140.325 198.438 146.58 197.402 152.706Z" fill="#858585" stroke="#263238" stroke-miterlimit="10" stroke-linecap="round" stroke-linejoin="round"/>
<path d="M210.998 79.0616C198.114 79.0616 185.23 79.0616 172.346 79.0616C167.814 79.0616 164.836 82.8664 165.742 87.3805C168.203 101.245 169.692 114.917 170.145 128.975C170.21 133.038 173.317 136.198 177.461 136.198C188.273 136.198 199.15 136.198 209.962 136.198C214.041 136.198 217.731 133.038 218.249 128.975C219.803 115.046 220.386 101.374 219.933 87.3805C219.738 82.8664 215.595 79.0616 210.998 79.0616Z" fill="#858585" stroke="#263238" stroke-miterlimit="10" stroke-linecap="round" stroke-linejoin="round"/>
<path d="M213.134 87.3805C213.588 101.374 213.005 115.11 211.451 128.975C210.933 133.038 207.243 136.198 203.164 136.198C194.618 136.198 186.072 136.198 177.461 136.198C173.382 136.198 170.274 133.038 170.145 128.975C169.692 114.917 168.203 101.181 165.742 87.3805C164.836 82.8664 167.814 79.0616 172.346 79.0616C182.964 79.0616 193.517 79.0616 204.135 79.0616C208.732 79.0616 212.94 82.8664 213.134 87.3805Z" fill="#999999" stroke="#263238" stroke-miterlimit="10" stroke-linecap="round" stroke-linejoin="round"/>
<path d="M194.747 208.037C194.747 208.746 194.1 209.326 193.323 209.133C189.115 208.23 176.425 205.586 171.505 205.586C166.584 205.586 153.894 208.23 149.686 209.133C148.974 209.262 148.262 208.746 148.262 208.037C148.262 206.618 149.233 205.393 150.657 205.07C155.578 204.038 166.908 201.717 171.505 201.717C176.101 201.717 187.367 204.038 192.352 205.07C193.712 205.393 194.747 206.618 194.747 208.037Z" fill="#263238" stroke="#263238" stroke-miterlimit="10" stroke-linecap="round" stroke-linejoin="round"/>
<path d="M148.262 205.715C146.061 205.715 144.312 207.456 144.312 209.649C144.312 211.842 146.061 213.583 148.262 213.583C150.463 213.583 152.211 211.842 152.211 209.649C152.276 207.521 150.463 205.715 148.262 205.715ZM148.262 211.842C147.096 211.842 146.125 210.874 146.125 209.713C146.125 208.553 147.096 207.585 148.262 207.585C149.427 207.585 150.398 208.553 150.398 209.713C150.463 210.874 149.492 211.842 148.262 211.842Z" fill="#858585" stroke="#263238" stroke-miterlimit="10" stroke-linecap="round" stroke-linejoin="round"/>
<path d="M171.505 205.715C169.303 205.715 167.555 207.456 167.555 209.649C167.555 211.842 169.303 213.583 171.505 213.583C173.706 213.583 175.454 211.842 175.454 209.649C175.454 207.521 173.706 205.715 171.505 205.715ZM171.505 211.842C170.339 211.842 169.368 210.874 169.368 209.713C169.368 208.553 170.339 207.585 171.505 207.585C172.67 207.585 173.641 208.553 173.641 209.713C173.641 210.874 172.67 211.842 171.505 211.842Z" fill="#858585" stroke="#263238" stroke-miterlimit="10" stroke-linecap="round" stroke-linejoin="round"/>
<path d="M194.229 205.715C192.028 205.715 190.28 207.456 190.28 209.649C190.28 211.842 192.028 213.583 194.229 213.583C196.431 213.583 198.179 211.842 198.179 209.649C198.244 207.521 196.431 205.715 194.229 205.715ZM194.229 211.842C193.064 211.842 192.093 210.874 192.093 209.713C192.093 208.553 193.064 207.585 194.229 207.585C195.395 207.585 196.366 208.553 196.366 209.713C196.366 210.874 195.46 211.842 194.229 211.842Z" fill="#858585" stroke="#263238" stroke-miterlimit="10" stroke-linecap="round" stroke-linejoin="round"/>
<path d="M183.288 151.481C167.685 151.933 152.405 151.288 136.867 149.418C133.695 148.966 131.17 151.159 131.17 154.319C131.17 154.641 131.17 154.77 131.17 155.092C131.17 158.252 133.695 161.219 136.867 161.67C152.405 163.54 167.62 164.185 183.288 163.734C183.288 158.833 183.288 156.382 183.288 151.481Z" fill="#999999" stroke="#263238" stroke-miterlimit="10" stroke-linecap="round" stroke-linejoin="round"/>
<path d="M207.631 161.412C197.985 162.638 188.467 163.411 178.756 163.798C176.425 163.863 174.483 161.993 174.483 159.607C174.483 158.123 174.483 157.414 174.483 155.931C174.483 153.609 176.425 151.675 178.756 151.61C188.467 151.223 197.985 150.385 207.631 149.224C209.962 148.902 211.904 150.514 211.904 152.835C211.904 154.319 211.904 155.028 211.904 156.511C211.84 158.897 209.962 161.09 207.631 161.412Z" fill="#858585" stroke="#263238" stroke-miterlimit="10" stroke-linecap="round" stroke-linejoin="round"/>
<path d="M143.212 211.584C143.212 209.456 142.759 205.135 140.169 199.524L136.867 187.594L126.508 191.979L129.422 201.137C129.422 201.137 120.487 205.393 117.25 206.489C115.049 207.263 108.51 208.746 108.833 211.519C108.833 212.357 109.481 213.002 110.322 213.002H141.723C142.564 213.131 143.212 212.422 143.212 211.584Z" fill="#FFDCCB" stroke="#263238" stroke-miterlimit="10" stroke-linecap="round" stroke-linejoin="round"/>
<path d="M137.514 204.619C135.896 205.78 127.285 207.327 129.422 205.586C131.558 203.845 129.422 201.201 129.422 201.201C129.422 201.201 120.487 205.457 117.25 206.554C115.049 207.327 108.51 208.811 108.833 211.584C108.833 212.422 109.481 213.067 110.322 213.067H141.723C142.564 213.067 143.277 212.358 143.212 211.584C143.212 209.778 142.888 206.425 141.205 202.04C139.457 202.104 139.133 203.458 137.514 204.619Z" fill="#E36F59" stroke="#263238" stroke-miterlimit="10" stroke-linecap="round" stroke-linejoin="round"/>
<path d="M150.722 213.131H173.706C174.159 213.131 174.612 212.809 174.677 212.357C175.001 210.552 174.936 206.489 172.864 201.072L172.67 190.109L160.887 192.108L162.376 201.459C162.376 201.459 157.65 206.683 155.384 207.585C153.83 208.23 150.204 208.295 149.751 212.1C149.621 212.615 150.139 213.131 150.722 213.131Z" fill="#FFDCCB" stroke="#263238" stroke-miterlimit="10" stroke-linecap="round" stroke-linejoin="round"/>
<path d="M168.98 204.683C166.519 206.36 164.771 206.554 165.872 204.039C167.037 201.524 162.376 201.395 162.376 201.395C162.376 201.395 157.65 206.618 155.384 207.521C153.83 208.166 150.204 208.23 149.751 212.035C149.686 212.615 150.139 213.131 150.722 213.131H173.706C174.159 213.131 174.612 212.809 174.677 212.357C175.001 210.552 174.936 206.489 172.864 201.072C171.051 201.459 171.375 202.942 168.98 204.683Z" fill="#E36F59" stroke="#263238" stroke-miterlimit="10" stroke-linecap="round" stroke-linejoin="round"/>
<path d="M148.391 129.362C148.391 129.362 146.061 131.748 136.608 133.231C127.156 134.715 107.474 139.487 107.733 147.225C107.927 154.964 126.055 196.236 126.055 196.236C126.055 196.236 135.119 194.494 139.327 191.915C139.327 191.915 132.011 162.444 126.573 154.706C126.573 154.706 151.111 151.675 164.707 146.129C178.303 140.518 170.275 127.814 170.275 127.814L148.391 129.362Z" fill="#263238" stroke="#263238" stroke-miterlimit="10" stroke-linecap="round" stroke-linejoin="round"/>
<path d="M163.865 128.33C163.865 128.33 167.361 134.134 164.771 137.358C162.182 140.583 147.42 146.58 149.039 153.932C150.722 161.219 156.225 171.537 159.851 196.042C159.851 196.042 168.203 194.752 173.835 192.366C173.835 192.366 174.742 167.41 168.267 156.705C168.267 156.705 186.913 153.287 188.791 147.032C190.669 140.776 187.172 131.297 187.108 127.879L163.865 128.33Z" fill="#263238" stroke="#263238" stroke-miterlimit="10" stroke-linecap="round" stroke-linejoin="round"/>
<path d="M152.6 137.552C152.211 137.552 151.758 137.552 151.305 137.552" stroke="#7F7F7F" stroke-width="0.75" stroke-linecap="round" stroke-linejoin="round"/>
<path d="M153.441 133.683C153.441 133.683 157.261 134.779 158.75 139.745C158.88 140.131 158.362 140.454 158.103 140.131C157.326 139.358 156.031 138.326 154.412 137.81" stroke="#7F7F7F" stroke-width="0.75" stroke-linecap="round" stroke-linejoin="round"/>
<path d="M124.76 154.512C124.76 152.384 115.696 151.288 118.092 149.353C120.487 147.419 126.055 153.738 126.055 153.738" stroke="#7F7F7F" stroke-width="0.75" stroke-linecap="round" stroke-linejoin="round"/>
<path d="M169.303 162.896C169.303 160.51 160.628 159.155 161.081 156.576C161.534 153.996 167.037 159.091 167.037 159.091" stroke="#7F7F7F" stroke-width="0.75" stroke-linecap="round" stroke-linejoin="round"/>
<path d="M125.149 196.365L126.12 198.557C126.249 198.815 126.508 198.944 126.767 198.88C128.839 198.428 137.579 196.365 140.622 194.172C140.816 194.043 140.881 193.785 140.816 193.592L140.234 191.141C140.169 190.754 139.716 190.625 139.392 190.754C138.032 191.528 134.148 193.269 125.472 195.591C125.149 195.72 124.954 196.042 125.149 196.365Z" fill="#999999" stroke="#263238" stroke-miterlimit="10" stroke-linecap="round" stroke-linejoin="round"/>
<path d="M158.75 194.559C158.685 194.237 159.009 193.979 159.333 194.043C159.98 194.301 161.016 194.43 162.57 194.108C164.966 193.592 171.828 191.399 173.9 190.754C174.159 190.69 174.483 190.883 174.483 191.206V194.043C174.483 194.237 174.353 194.365 174.224 194.43C172.605 195.139 163.994 198.815 159.527 197.783C159.333 197.719 159.203 197.59 159.203 197.396L158.75 194.559Z" fill="#999999" stroke="#263238" stroke-miterlimit="10" stroke-linecap="round" stroke-linejoin="round"/>
<path d="M165.678 134.908C165.613 135.811 165.289 136.649 164.707 137.358C162.829 139.68 154.412 143.549 150.657 148.321" stroke="#7F7F7F" stroke-linecap="round" stroke-linejoin="round"/>
<path d="M165.225 131.619C165.354 132.071 165.484 132.586 165.548 133.102" stroke="#7F7F7F" stroke-linecap="round" stroke-linejoin="round"/>
<path d="M115.696 208.037C115.696 208.037 116.343 209.069 116.861 211.132H140.234C140.234 211.132 140.298 209.585 141.529 208.488" stroke="#263238" stroke-miterlimit="10" stroke-linecap="round" stroke-linejoin="round"/>
<path d="M156.29 208.037C156.29 208.037 159.527 208.295 160.757 211.132H172.994C172.994 211.132 173.641 209.649 173.641 208.488" stroke="#263238" stroke-miterlimit="10" stroke-linecap="round" stroke-linejoin="round"/>
<path d="M137.126 92.9266C137.45 94.0873 137.709 95.1836 138.032 96.2799C141.27 107.888 145.478 130.007 145.478 130.007C166.196 134.392 188.079 130.007 188.079 130.007C188.208 125.17 187.626 118.851 186.978 112.144C190.345 111.177 192.805 108.081 192.935 102.922C193.129 96.6024 191.963 85.317 191.316 80.029C190.733 75.3859 191.122 72.613 183.935 69.0662C180.31 67.0026 174.289 65.9708 166.908 65.0034C152.341 63.0688 141.852 65.9708 138.097 67.583C135.119 66.8091 134.342 70.2914 134.342 70.2914C132.723 69.0662 130.781 74.2897 130.781 74.2897C125.99 80.3515 122.235 90.605 120.94 94.2808C120.681 95.0546 120.163 95.764 119.451 96.2799C116.02 98.8594 117.962 102.084 117.962 102.084L124.954 104.212C124.954 104.212 128.321 105.115 130.911 100.665C132.982 96.9248 136.543 90.6695 137.126 92.9266Z" fill="#E36F59"/>
<path opacity="0.3" d="M126.184 101.245C126.184 101.245 125.99 98.0211 123.4 97.4407C120.811 96.8603 124.113 95.893 126.184 96.4089C128.191 96.8603 127.738 95.1191 129.486 92.2172C131.234 89.3152 132.076 86.9937 133.565 88.6704C135.054 90.3471 136.543 90.605 137.191 92.8621C137.838 95.1836 134.73 100.601 134.73 100.601L129.875 104.341L127.414 105.695H123.724L122.494 102.535L126.184 101.245Z" fill="black"/>
<path d="M137.126 92.9266C137.45 94.0873 137.709 95.1836 138.032 96.2799C141.27 107.888 145.478 130.007 145.478 130.007C166.196 134.392 188.079 130.007 188.079 130.007C188.208 125.17 187.626 118.851 186.978 112.144C190.345 111.177 192.805 108.081 192.935 102.922C193.129 96.6024 191.963 85.317 191.316 80.029C190.733 75.3859 191.122 72.613 183.935 69.0662C180.31 67.0026 174.289 65.9708 166.908 65.0034C152.341 63.0688 141.852 65.9708 138.097 67.583C135.119 66.8091 134.342 70.2914 134.342 70.2914C132.723 69.0662 130.781 74.2897 130.781 74.2897C125.99 80.3515 122.235 90.605 120.94 94.2808C120.681 95.0546 120.163 95.764 119.451 96.2799C116.02 98.8594 117.962 102.084 117.962 102.084L124.954 104.212C124.954 104.212 128.321 105.115 130.911 100.665C132.982 96.9248 136.543 90.6695 137.126 92.9266Z" stroke="#263238" stroke-miterlimit="10" stroke-linecap="round" stroke-linejoin="round"/>
<path opacity="0.3" d="M188.079 130.007C188.144 126.525 187.885 122.204 187.496 117.625C188.208 127.427 167.685 130.523 167.037 125.17C166.39 119.818 186.978 112.144 175.778 114.852C166.001 117.174 147.032 114.981 142.37 114.336C144.183 122.72 145.543 130.007 145.543 130.007C166.196 134.328 188.079 130.007 188.079 130.007Z" fill="black"/>
<path opacity="0.3" d="M178.626 80.674C178.626 80.674 175.713 89.1863 175.713 93.7004C175.713 98.2146 167.491 101.245 167.491 101.245C171.893 100.343 176.166 99.1819 178.238 98.6015C178.95 98.408 179.468 97.6987 179.403 96.9248C178.95 92.2817 178.562 86.0909 178.626 80.674Z" fill="black"/>
<path d="M134.407 78.4813C134.407 78.4813 134.277 84.6076 136.543 90.2825C136.738 90.7984 136.155 91.3143 135.702 90.9274C134.601 90.1536 133.047 88.5414 131.623 85.2525" stroke="#263238" stroke-width="0.75" stroke-miterlimit="10" stroke-linecap="round" stroke-linejoin="round"/>
<path d="M189.374 104.857C187.69 99.2464 184.712 97.8276 182.446 97.6342C182.058 97.6342 181.928 97.1183 182.252 96.9248C183.612 96.2154 186.201 95.6351 189.374 99.1819" stroke="#263238" stroke-width="0.75" stroke-miterlimit="10" stroke-linecap="round" stroke-linejoin="round"/>
<path d="M156.549 88.6703C156.549 89.1862 156.096 89.6376 155.578 89.6376C155.06 89.6376 154.607 89.1862 154.607 88.6703C154.607 88.1544 155.06 87.703 155.578 87.703C156.096 87.703 156.549 88.1544 156.549 88.6703Z" fill="#999999" stroke="#263238" stroke-width="0.75" stroke-miterlimit="10" stroke-linecap="round" stroke-linejoin="round"/>
<path d="M157.844 99.6332C157.844 100.149 157.391 100.601 156.873 100.601C156.355 100.601 155.901 100.149 155.901 99.6332C155.901 99.1173 156.355 98.6659 156.873 98.6659C157.391 98.6659 157.844 99.1173 157.844 99.6332Z" fill="#999999" stroke="#263238" stroke-width="0.75" stroke-miterlimit="10" stroke-linecap="round" stroke-linejoin="round"/>
<path d="M161.081 126.138C161.081 126.653 160.628 127.105 160.11 127.105C159.592 127.105 159.139 126.653 159.139 126.138C159.139 125.622 159.592 125.17 160.11 125.17C160.628 125.17 161.081 125.557 161.081 126.138Z" fill="#999999" stroke="#263238" stroke-miterlimit="10" stroke-linecap="round" stroke-linejoin="round"/>
<path d="M142.5 106.856C142.5 106.856 139.327 109.887 140.816 109.951C142.305 110.016 144.248 107.952 145.996 107.694C147.744 107.436 144.895 106.404 144.895 106.404L142.5 106.856Z" fill="#FFDCCB" stroke="#263238" stroke-miterlimit="10" stroke-linecap="round" stroke-linejoin="round"/>
<path d="M161.081 103.438C160.822 103.18 160.434 103.051 160.045 103.115C158.491 103.244 154.024 103.567 152.341 103.502C149.362 103.309 140.557 101.439 140.557 101.439C140.363 101.374 140.169 101.439 139.975 101.503L134.536 103.115C134.342 103.18 134.148 103.244 134.018 103.438L130.716 106.469C130.587 106.598 130.522 106.662 130.457 106.791L129.745 108.017C129.486 108.532 129.551 109.177 130.004 109.629L135.443 109.822C135.766 109.822 136.09 109.693 136.349 109.5L137.968 108.146C138.097 108.081 138.162 107.952 138.227 107.823C138.615 107.178 140.169 105.05 142.564 105.244C142.564 105.244 137.385 108.017 138.356 109.113C139.327 110.209 143.277 106.985 144.571 107.307C145.866 107.63 145.931 110.79 152.988 109.629C153.312 109.564 153.636 109.564 153.959 109.693L160.369 111.499C161.146 111.692 161.987 111.241 162.182 110.467C162.635 108.468 163.088 105.244 161.081 103.438Z" fill="#FFDCCB" stroke="#263238" stroke-miterlimit="10" stroke-linecap="round" stroke-linejoin="round"/>
<path d="M141.27 102.6L139.91 102.858C139.263 102.987 138.615 103.244 138.097 103.696L136.673 104.921C136.414 105.115 136.22 105.373 136.025 105.695L135.119 107.114C134.989 107.243 134.925 107.436 134.795 107.565C134.213 108.146 132.723 110.016 134.342 109.758" fill="#FFDCCB"/>
<path d="M141.27 102.6L139.91 102.858C139.263 102.987 138.615 103.244 138.097 103.696L136.673 104.921C136.414 105.115 136.22 105.373 136.025 105.695L135.119 107.114C134.989 107.243 134.925 107.436 134.795 107.565C134.213 108.146 132.723 110.016 134.342 109.758" stroke="#263238" stroke-miterlimit="10" stroke-linecap="round" stroke-linejoin="round"/>
<path d="M137.385 103.051L135.961 103.438C135.507 103.567 135.119 103.76 134.795 104.083L133.695 105.115C133.565 105.244 133.5 105.308 133.436 105.437L131.623 107.823C131.623 107.823 130.652 109.5 131.623 109.564" fill="#FFDCCB"/>
<path d="M137.385 103.051L135.961 103.438C135.507 103.567 135.119 103.76 134.795 104.083L133.695 105.115C133.565 105.244 133.5 105.308 133.436 105.437L131.623 107.823C131.623 107.823 130.652 109.5 131.623 109.564" stroke="#263238" stroke-miterlimit="10" stroke-linecap="round" stroke-linejoin="round"/>
<path d="M178.691 79.2551C178.432 84.9945 178.95 91.8947 179.339 96.9247C179.403 97.6986 178.95 98.3434 178.173 98.6014C175.324 99.4397 168.267 101.374 162.505 102.084" stroke="#263238" stroke-miterlimit="10" stroke-linecap="round" stroke-linejoin="round"/>
<path d="M179.015 75.257C178.95 75.9018 178.885 76.6112 178.821 77.3206" stroke="#263238" stroke-width="0.75" stroke-miterlimit="10" stroke-linecap="round" stroke-linejoin="round"/>
<path d="M181.216 69.2596C180.504 69.9045 179.921 71.0653 179.533 72.613" stroke="#263238" stroke-width="0.75" stroke-miterlimit="10" stroke-linecap="round" stroke-linejoin="round"/>
<path d="M148.78 65.3903C148.78 65.3903 149.168 64.1006 151.37 63.3912C153.571 62.6819 161.146 61.5211 165.03 63.3912C168.915 65.2614 161.469 75.5149 161.469 75.5149L157.973 80.287L154.866 82.6085L153.506 78.5458L151.693 76.6757C151.693 76.6757 147.873 73.5158 148.197 70.4204C148.521 67.325 148.78 65.3903 148.78 65.3903Z" fill="#FFBE9D"/>
<path d="M167.879 65.1323C167.296 63.0042 164.512 62.4239 164.512 62.4239C151.24 60.1668 148.456 65.0034 148.456 65.0034C145.737 72.4839 148.456 78.5457 148.456 78.5457C148.456 78.5457 152.211 76.998 152.859 78.5457C153.506 80.0934 154.671 83.4468 154.671 83.4468C154.671 83.4468 157.261 82.157 159.333 79.4486C161.405 76.7401 166.196 79.4486 166.196 79.4486C169.303 74.0316 167.879 65.1323 167.879 65.1323ZM164.642 65.0034C159.527 81.0608 154.995 81.7701 154.995 81.7701C153.506 75.8373 152.211 77.127 150.139 73.4512C148.521 70.4848 149.039 66.7445 149.362 65.3903C149.427 65.0678 149.621 64.7454 149.945 64.6164C155.06 62.0369 161.275 63.0042 163.865 63.5201C164.512 63.6491 164.836 64.3585 164.642 65.0034Z" fill="#E36F59"/>
<path opacity="0.4" d="M167.879 65.1323C167.296 63.0042 164.512 62.4239 164.512 62.4239C151.24 60.1668 148.456 65.0034 148.456 65.0034C145.737 72.4839 148.456 78.5457 148.456 78.5457C148.456 78.5457 152.211 76.998 152.859 78.5457C153.506 80.0934 154.671 83.4468 154.671 83.4468C154.671 83.4468 157.261 82.157 159.333 79.4486C161.405 76.7401 166.196 79.4486 166.196 79.4486C169.303 74.0316 167.879 65.1323 167.879 65.1323ZM164.642 65.0034C159.527 81.0608 154.995 81.7701 154.995 81.7701C153.506 75.8373 152.211 77.127 150.139 73.4512C148.521 70.4848 149.039 66.7445 149.362 65.3903C149.427 65.0678 149.621 64.7454 149.945 64.6164C155.06 62.0369 161.275 63.0042 163.865 63.5201C164.512 63.6491 164.836 64.3585 164.642 65.0034Z" fill="white"/>
<path d="M167.879 65.1323C167.296 63.0042 164.512 62.4239 164.512 62.4239C151.24 60.1668 148.456 65.0034 148.456 65.0034C145.737 72.4839 148.456 78.5457 148.456 78.5457C148.456 78.5457 152.211 76.998 152.859 78.5457C153.506 80.0934 154.671 83.4468 154.671 83.4468C154.671 83.4468 157.261 82.157 159.333 79.4486C161.405 76.7401 166.196 79.4486 166.196 79.4486C169.303 74.0316 167.879 65.1323 167.879 65.1323ZM164.642 65.0034C159.527 81.0608 154.995 81.7701 154.995 81.7701C153.506 75.8373 152.211 77.127 150.139 73.4512C148.521 70.4848 149.039 66.7445 149.362 65.3903C149.427 65.0678 149.621 64.7454 149.945 64.6164C155.06 62.0369 161.275 63.0042 163.865 63.5201C164.512 63.6491 164.836 64.3585 164.642 65.0034Z" stroke="#263238" stroke-miterlimit="10" stroke-linecap="round" stroke-linejoin="round"/>
<path d="M146.19 40.5626C146.19 40.5626 134.73 42.8197 141.075 50.2358C148.068 58.4902 146.19 40.5626 146.19 40.5626Z" fill="#263238" stroke="#263238" stroke-miterlimit="10" stroke-linecap="round" stroke-linejoin="round"/>
<path d="M141.723 58.6836C141.723 58.6836 139.004 47.7207 144.183 42.4327C149.362 37.1447 154.995 36.1129 159.203 38.6924C163.412 41.2719 165.16 47.7207 164.512 51.0741C163.865 54.4274 164.189 66.3576 158.426 71.2587C152.664 76.2242 149.103 74.9989 145.284 68.2277C142.694 63.7781 141.529 62.5528 141.723 58.6836Z" fill="#FFDCCB" stroke="#263238" stroke-miterlimit="10" stroke-linecap="round" stroke-linejoin="round"/>
<path d="M161.728 56.4911C161.728 56.4911 157.391 52.1704 156.031 47.1404C154.671 42.1103 153.959 41.2075 148.974 43.7225C143.989 46.173 136.284 42.8842 138.291 36.6289C140.428 30.0512 146.902 38.5635 153.182 36.4354C159.462 34.3073 163.865 38.1766 163.865 43.8515C163.865 43.8515 167.62 47.5273 163.865 56.9425L161.728 56.4911Z" fill="#263238" stroke="#263238" stroke-miterlimit="10" stroke-linecap="round" stroke-linejoin="round"/>
<path d="M160.369 55.7817C160.369 55.7817 161.469 49.7844 164.512 50.3003C167.555 50.8807 165.354 59.7155 161.793 58.7481" fill="#FFDCCB"/>
<path d="M160.369 55.7817C160.369 55.7817 161.469 49.7844 164.512 50.3003C167.555 50.8807 165.354 59.7155 161.793 58.7481" stroke="#263238" stroke-miterlimit="10" stroke-linecap="round" stroke-linejoin="round"/>
<path d="M145.802 57.8453C145.802 57.8453 144.571 63.3913 144.96 64.3586C145.348 65.3259 149.039 64.552 149.039 64.552" fill="#FFDCCB"/>
<path d="M145.802 57.8453C145.802 57.8453 144.571 63.3913 144.96 64.3586C145.348 65.3259 149.039 64.552 149.039 64.552" stroke="#263238" stroke-miterlimit="10" stroke-linecap="round" stroke-linejoin="round"/>
<path d="M149.621 67.0025C149.621 67.0025 152.535 68.1633 155.06 64.3585L149.621 67.0025Z" fill="#FFDCCB"/>
<path d="M149.621 67.0025C149.621 67.0025 152.535 68.1633 155.06 64.3585" stroke="#263238" stroke-miterlimit="10" stroke-linecap="round" stroke-linejoin="round"/>
<path d="M143.859 58.2967C143.989 58.8126 143.859 59.264 143.536 59.3285C143.277 59.393 142.953 59.006 142.823 58.4901C142.694 57.9742 142.823 57.5228 143.147 57.4583C143.406 57.3938 143.73 57.7808 143.859 58.2967Z" fill="#263238"/>
<path d="M150.916 57.7163C151.046 58.2322 150.916 58.6837 150.593 58.7481C150.334 58.8126 150.01 58.4257 149.88 57.9098C149.751 57.3939 149.88 56.9425 150.204 56.878C150.528 56.8135 150.852 57.2004 150.916 57.7163Z" fill="#263238"/>
<path d="M145.348 58.0388C145.478 59.522 143.989 60.8118 142.046 61.0697C140.104 61.2632 138.356 60.2314 138.227 58.7482C138.097 57.265 139.651 56.6201 141.593 56.4266C143.536 56.2977 145.219 56.6201 145.348 58.0388Z" stroke="#263238" stroke-miterlimit="10" stroke-linecap="round" stroke-linejoin="round"/>
<path d="M154.477 57.136C154.607 58.6192 153.118 59.9089 151.175 60.1669C149.233 60.3604 147.485 59.3286 147.355 57.8453C147.226 56.3621 148.78 55.7173 150.722 55.5238C152.729 55.3303 154.348 55.6528 154.477 57.136Z" stroke="#263238" stroke-miterlimit="10" stroke-linecap="round" stroke-linejoin="round"/>
<path d="M145.348 58.0388L147.355 57.8453" stroke="#263238" stroke-miterlimit="10" stroke-linecap="round" stroke-linejoin="round"/>
<path d="M154.218 56.4266L161.793 51.9769" stroke="#263238" stroke-miterlimit="10" stroke-linecap="round" stroke-linejoin="round"/>
<path d="M163.088 63.2622L163.412 64.165" stroke="#263238" stroke-miterlimit="10" stroke-linecap="round" stroke-linejoin="round"/>
<path d="M141.075 55.7172C141.075 55.7172 142.241 54.234 143.6 54.9434L141.075 55.7172Z" fill="#FFDCCB"/>
<path d="M141.075 55.7172C141.075 55.7172 142.241 54.234 143.6 54.9434" stroke="#263238" stroke-miterlimit="10" stroke-linecap="round" stroke-linejoin="round"/>
<path d="M152.794 55.0723C152.794 55.0723 150.787 53.1376 148.844 54.4919L152.794 55.0723Z" fill="#FFDCCB"/>
<path d="M152.794 55.0723C152.794 55.0723 150.787 53.1376 148.844 54.4919" stroke="#263238" stroke-miterlimit="10" stroke-linecap="round" stroke-linejoin="round"/>
<path d="M143.665 37.3383C146.708 38.3056 151.887 39.4663 156.096 38.2411C162.505 36.3065 160.369 43.5291 161.793 45.5282" stroke="#7F7F7F" stroke-linecap="round" stroke-linejoin="round"/>
<path d="M141.011 36.371C141.011 36.371 141.528 36.5644 142.37 36.8869" stroke="#7F7F7F" stroke-linecap="round" stroke-linejoin="round"/>
<path d="M148.715 40.9495C149.039 40.8206 149.427 40.6916 149.816 40.5626" stroke="#7F7F7F" stroke-linecap="round" stroke-linejoin="round"/>
<path d="M141.723 40.1112C141.723 40.1112 143.082 42.2393 147.485 41.272" stroke="#7F7F7F" stroke-linecap="round" stroke-linejoin="round"/>
<path d="M158.167 44.2384C158.426 46.0441 159.139 48.7525 160.887 51.1386" stroke="#7F7F7F" stroke-linecap="round" stroke-linejoin="round"/>
<path d="M157.973 41.9813C157.973 41.9813 157.973 42.4327 158.038 43.1421" stroke="#7F7F7F" stroke-linecap="round" stroke-linejoin="round"/>
<path opacity="0.3" d="M163.735 111.112C163.217 111.563 163.541 112.402 164.189 112.466C168.591 112.466 180.374 112.531 184.906 112.273C190.604 111.95 186.266 105.824 181.669 108.146C177.526 110.274 168.721 106.662 163.735 111.112Z" fill="black"/>
<path d="M114.401 105.115C114.401 105.115 117.056 98.0855 123.659 99.1818C130.393 100.278 125.213 105.824 122.041 106.34C122.106 106.34 121.588 104.405 114.401 105.115Z" fill="white" stroke="#263238" stroke-miterlimit="10" stroke-linecap="round" stroke-linejoin="round"/>
<path d="M108.769 109.048C107.862 109.951 105.79 110.016 107.215 108.081C108.769 106.017 110.517 105.308 111.747 104.728C114.919 103.309 116.149 103.631 118.998 102.987C121.847 102.342 122.365 103.502 123.4 104.083C125.731 105.373 126.314 105.566 126.897 106.856C127.479 108.146 128.127 109.822 126.314 109.822C124.631 109.822 124.501 107.049 122.883 107.178C121.264 107.307 120.422 109.822 119.322 109.822C118.221 109.822 119.84 109.822 118.868 109.822C117.897 109.822 117.833 109.048 118.415 107.759C118.998 106.469 119.645 105.373 119.645 105.373C119.645 105.373 118.221 106.017 117.444 107.63C116.667 109.306 116.538 109.951 115.113 109.951C113.689 109.951 113.754 108.919 115.178 106.533C115.178 106.533 113.883 107.243 113.171 108.532C112.459 109.822 112.135 109.758 111.164 109.758C109.934 109.758 110.063 107.759 112.2 106.469C112.329 106.598 111.811 106.017 108.769 109.048Z" fill="white" stroke="#263238" stroke-miterlimit="10" stroke-linecap="round" stroke-linejoin="round"/>
<path d="M117.12 104.341C117.12 104.341 116.279 104.276 115.761 105.695L117.12 104.341Z" fill="white"/>
<path d="M117.12 104.341C117.12 104.341 116.279 104.276 115.761 105.695" stroke="#263238" stroke-width="0.75" stroke-miterlimit="10" stroke-linecap="round" stroke-linejoin="round"/>
<path d="M223.493 43.6581C227.637 46.8825 231.586 50.4293 235.406 54.1696" stroke="#263238" stroke-width="0.75" stroke-miterlimit="10" stroke-linecap="round" stroke-linejoin="round"/>
<path d="M218.961 40.2402C219.738 40.8206 220.515 41.401 221.292 41.9814" stroke="#263238" stroke-width="0.75" stroke-miterlimit="10" stroke-linecap="round" stroke-linejoin="round"/>
<path d="M214.494 37.1448C215.336 37.6607 216.113 38.2411 216.889 38.757" stroke="#263238" stroke-width="0.75" stroke-miterlimit="10" stroke-linecap="round" stroke-linejoin="round"/>
<path d="M181.346 21.5388C191.963 24.8277 202.193 29.4708 211.84 35.4681" stroke="#263238" stroke-width="0.75" stroke-miterlimit="10" stroke-linecap="round" stroke-linejoin="round"/>
<path d="M174.289 19.6042C175.583 19.9267 176.878 20.3136 178.238 20.636" stroke="#263238" stroke-width="0.75" stroke-miterlimit="10" stroke-linecap="round" stroke-linejoin="round"/>
<path d="M167.037 17.9921C168.462 18.25 169.886 18.5725 171.31 18.8949" stroke="#263238" stroke-width="0.75" stroke-miterlimit="10" stroke-linecap="round" stroke-linejoin="round"/>
<path d="M160.498 16.8958C161.728 17.0892 162.958 17.2827 164.189 17.4761" stroke="#263238" stroke-width="0.75" stroke-miterlimit="10" stroke-linecap="round" stroke-linejoin="round"/>
<path d="M121.458 17.1537C133.436 15.2836 145.672 15.0901 157.714 16.5088" stroke="#263238" stroke-width="0.75" stroke-miterlimit="10" stroke-linecap="round" stroke-linejoin="round"/>
<path d="M116.149 18.121C117.25 17.9276 118.35 17.6696 119.451 17.5406" stroke="#263238" stroke-width="0.75" stroke-miterlimit="10" stroke-linecap="round" stroke-linejoin="round"/>
<path d="M110.97 19.2173C112.07 18.9594 113.171 18.7014 114.272 18.4435" stroke="#263238" stroke-width="0.75" stroke-miterlimit="10" stroke-linecap="round" stroke-linejoin="round"/>
<path d="M104.56 20.894C105.661 20.5715 106.826 20.2491 107.927 19.9266" stroke="#263238" stroke-width="0.75" stroke-miterlimit="10" stroke-linecap="round" stroke-linejoin="round"/>
<path d="M66.038 39.3374C76.9148 31.7279 88.7628 25.924 100.999 21.9902" stroke="#263238" stroke-width="0.75" stroke-miterlimit="10" stroke-linecap="round" stroke-linejoin="round"/>
<path d="M60.8585 43.2067C61.8944 42.4328 62.8656 41.659 63.9014 40.8851" stroke="#263238" stroke-width="0.75" stroke-miterlimit="10" stroke-linecap="round" stroke-linejoin="round"/>
<path d="M55.6143 47.4629C56.715 46.4956 57.8156 45.5928 58.981 44.6899" stroke="#263238" stroke-width="0.75" stroke-miterlimit="10" stroke-linecap="round" stroke-linejoin="round"/>
<path d="M48.3631 54.1696C49.8522 52.6864 51.406 51.2031 53.0246 49.7844" stroke="#263238" stroke-width="0.75" stroke-miterlimit="10" stroke-linecap="round" stroke-linejoin="round"/>
<path d="M82.8712 46.6889C91.7746 46.6889 98.9923 39.4998 98.9923 30.6315C98.9923 21.7632 91.7746 14.5741 82.8712 14.5741C73.9678 14.5741 66.7502 21.7632 66.7502 30.6315C66.7502 39.4998 73.9678 46.6889 82.8712 46.6889Z" fill="#92E3A9"/>
<path opacity="0.3" d="M98.5567 34.3324C100.62 25.7053 95.2722 17.0453 86.611 14.9896C77.9497 12.934 69.2554 18.2611 67.1916 26.8881C65.1278 35.5152 70.476 44.1752 79.1373 46.2309C87.7985 48.2866 96.4929 42.9594 98.5567 34.3324Z" fill="white"/>
<path d="M75.1668 36.9513V32.8885C75.1668 31.8567 74.9078 31.5988 73.8072 31.5988V29.6642C74.9078 29.6642 75.1668 29.3417 75.1668 28.3744V24.3762C75.1668 22.6995 76.2674 21.9257 77.627 21.9257H78.8572V23.8603H78.5334C77.7565 23.8603 77.3681 24.1827 77.3681 25.408V28.6969C77.3681 29.4707 77.1091 30.309 76.0085 30.6315V30.696C77.0443 31.0184 77.3681 31.8567 77.3681 32.6306V35.9195C77.3681 37.1447 77.7565 37.4672 78.5334 37.4672H78.8572V39.4018H77.627C76.2027 39.3373 75.1668 38.5634 75.1668 36.9513Z" fill="white"/>
<path d="M86.9501 37.4027H87.2738C88.0507 37.4027 88.4392 37.0803 88.4392 35.855V32.5661C88.4392 31.7923 88.6981 30.9539 89.7988 30.6315V30.567C88.7629 30.2446 88.4392 29.4062 88.4392 28.6324V25.3435C88.4392 24.1183 88.0507 23.7958 87.2738 23.7958H86.9501V21.8612H88.1802C89.5398 21.8612 90.6404 22.6351 90.6404 24.3117V28.31C90.6404 29.3418 90.8994 29.5997 92 29.5997V31.5343C90.8994 31.5343 90.6404 31.8568 90.6404 32.8241V36.8223C90.6404 38.499 89.5398 39.2728 88.1802 39.2728H86.9501V37.4027Z" fill="white"/>
<path d="M51.665 75.7728H42.342C38.0689 75.7728 34.5728 72.2905 34.5728 68.0343V58.8126C34.5728 54.5564 38.0689 51.0741 42.342 51.0741H51.665C55.9381 51.0741 59.4342 54.5564 59.4342 58.8126V68.0988C59.3694 72.355 55.9381 75.7728 51.665 75.7728Z" fill="#E36F59"/>
<path d="M38.0042 64.0361V62.8108L42.9894 60.6827V61.9725L39.558 63.3912L42.9894 64.8099V66.0997L38.0042 64.0361Z" fill="white"/>
<path d="M48.4926 57.7808H50.0464L45.5792 69.0661H44.0253L48.4926 57.7808Z" fill="white"/>
<path d="M51.0176 64.8744L54.449 63.4557L51.0176 62.0369V60.7472L55.9381 62.8753V64.1005L51.0176 66.2286V64.8744Z" fill="white"/>
<path d="M197.143 40.6916C204.723 40.6916 210.868 34.5707 210.868 27.0202C210.868 19.4698 204.723 13.3489 197.143 13.3489C189.562 13.3489 183.417 19.4698 183.417 27.0202C183.417 34.5707 189.562 40.6916 197.143 40.6916Z" fill="#70CAFC"/>
<path d="M188.661 29.8577V24.1828C188.661 22.5706 189.503 21.6033 191.122 21.6033C192.74 21.6033 193.582 22.5706 193.582 24.1828V25.2791H192.028V24.0538C192.028 23.3444 191.704 23.0865 191.186 23.0865C190.669 23.0865 190.345 23.3444 190.345 24.0538V29.9222C190.345 30.6315 190.669 30.8895 191.186 30.8895C191.704 30.8895 192.028 30.6315 192.028 29.9222V28.31H193.582V29.7932C193.582 31.4054 192.74 32.3727 191.122 32.3727C189.503 32.4372 188.661 31.4699 188.661 29.8577Z" fill="white"/>
<path d="M196.366 27.6006H194.359V26.4398H196.366V24.3762H197.531V26.4398H199.538V27.6006H197.531V29.6642H196.366V27.6006Z" fill="white"/>
<path d="M202.452 27.6006H200.445V26.4398H202.452V24.3762H203.617V26.4398H205.624V27.6006H203.617V29.6642H202.452V27.6006Z" fill="white"/>
<path d="M144.442 30.1802H132.011C127.156 30.1802 123.206 26.2464 123.206 21.4099V9.02824C123.206 4.19168 127.156 0.257935 132.011 0.257935H144.442C149.298 0.257935 153.247 4.19168 153.247 9.02824V21.4099C153.247 26.2464 149.298 30.1802 144.442 30.1802Z" fill="#E36F59"/>
<path d="M129.227 18.3789V12.0592C129.227 10.2535 130.198 9.15723 131.947 9.15723C133.759 9.15723 134.666 10.2535 134.666 12.0592V13.2844H132.918V11.9302C132.918 11.1563 132.529 10.8339 132.011 10.8339C131.429 10.8339 131.105 11.1563 131.105 11.9302V18.5079C131.105 19.2818 131.493 19.6042 132.011 19.6042C132.594 19.6042 132.918 19.2818 132.918 18.5079V16.7023H134.666V18.3789C134.666 20.1846 133.695 21.2809 131.947 21.2809C130.134 21.2164 129.227 20.1846 129.227 18.3789Z" fill="white"/>
<path d="M135.507 18.25V17.6051H137.255V18.3789C137.255 19.2173 137.644 19.5397 138.227 19.5397C138.809 19.5397 139.198 19.2173 139.198 18.3789C139.198 17.4116 138.809 16.7668 137.644 15.735C136.09 14.3807 135.572 13.4134 135.572 12.0592C135.572 10.189 136.543 9.15723 138.356 9.15723C140.169 9.15723 141.075 10.2535 141.075 12.1237V12.6396H139.198V12.0592C139.198 11.2208 138.874 10.8984 138.291 10.8984C137.709 10.8984 137.385 11.2208 137.385 11.9947C137.385 12.833 137.773 13.4779 139.004 14.5097C140.557 15.8639 141.011 16.8312 141.011 18.25C141.011 20.1846 140.039 21.2164 138.227 21.2164C136.414 21.2164 135.507 20.1846 135.507 18.25Z" fill="white"/>
<path d="M141.723 18.25V17.6051H143.471V18.3789C143.471 19.2173 143.859 19.5397 144.442 19.5397C145.025 19.5397 145.413 19.2173 145.413 18.3789C145.413 17.4116 145.025 16.7668 143.859 15.735C142.305 14.3807 141.787 13.4134 141.787 12.0592C141.787 10.189 142.759 9.15723 144.571 9.15723C146.384 9.15723 147.291 10.2535 147.291 12.1237V12.6396H145.543V12.0592C145.543 11.2208 145.219 10.8984 144.636 10.8984C144.053 10.8984 143.73 11.2208 143.73 11.9947C143.73 12.833 144.118 13.4779 145.348 14.5097C146.902 15.8639 147.355 16.8312 147.355 18.25C147.355 20.1846 146.384 21.2164 144.571 21.2164C142.629 21.2164 141.723 20.1846 141.723 18.25Z" fill="white"/>
<path d="M233.464 69.6466C241.044 69.6466 247.189 63.5257 247.189 55.9752C247.189 48.4247 241.044 42.3038 233.464 42.3038C225.883 42.3038 219.738 48.4247 219.738 55.9752C219.738 63.5257 225.883 69.6466 233.464 69.6466Z" fill="#E36F59"/>
<path opacity="0.3" d="M246.864 59.1316C248.621 51.7865 244.069 44.4127 236.694 42.6617C229.32 40.9108 221.917 45.4457 220.159 52.7908C218.401 60.1359 222.954 67.5098 230.328 69.2607C237.703 71.0117 245.106 66.4767 246.864 59.1316Z" fill="white"/>
<path d="M228.09 58.6838V53.2668C228.09 51.7191 228.932 50.8163 230.421 50.8163C231.975 50.8163 232.752 51.7191 232.752 53.2668V54.3631H231.262V53.2023C231.262 52.5574 230.939 52.235 230.486 52.235C230.032 52.235 229.709 52.493 229.709 53.2023V58.8127C229.709 59.4576 230.032 59.7156 230.486 59.7156C230.939 59.7156 231.262 59.4576 231.262 58.8127V57.265H232.752V58.6838C232.752 60.2315 231.91 61.1343 230.421 61.1343C228.867 61.1343 228.09 60.2315 228.09 58.6838Z" fill="white"/>
<path d="M234.111 58.1034H233.399L233.528 57.0071H234.241L234.5 54.3632H233.723L233.852 53.2669H234.564L234.823 50.9453H236.053L235.794 53.2669H236.83L237.089 50.9453H238.319L238.061 53.2669H238.773L238.643 54.3632H237.931L237.672 57.0071H238.384L238.255 58.1034H237.607L237.284 61.0054H236.053L236.377 58.1034H235.341L235.018 61.0054H233.787L234.111 58.1034ZM236.507 57.0071L236.766 54.3632H235.73L235.471 57.0071H236.507Z" fill="white"/>
<path d="M71.4117 213.196H68.9514L68.304 118.27H71.4117V213.196Z" fill="#858585" stroke="#263238" stroke-miterlimit="10" stroke-linecap="round" stroke-linejoin="round"/>
<path d="M73.8072 213.196H71.4117V118.27H74.4547L73.8072 213.196Z" fill="#999999" stroke="#263238" stroke-miterlimit="10" stroke-linecap="round" stroke-linejoin="round"/>
<path d="M208.473 112.466H43.8959V118.27H208.473V112.466Z" fill="#263238" stroke="#263238" stroke-miterlimit="10" stroke-linecap="round" stroke-linejoin="round"/>
<path d="M242.852 112.466H206.013V118.27H242.852V112.466Z" fill="#858585" stroke="#263238" stroke-miterlimit="10" stroke-linecap="round" stroke-linejoin="round"/>
<path d="M215.918 118.27H52.3125V127.879H215.918V118.27Z" fill="#70CAFC" stroke="#263238" stroke-miterlimit="10"/>
<path d="M234.953 118.27H215.918V127.879H234.953V118.27Z" fill="#70CAFC"/>
<path opacity="0.3" d="M215.996 127.839H235.031V118.23H215.996V127.839Z" fill="black"/>
<path d="M234.953 118.27H215.918V127.879H234.953V118.27Z" stroke="#263238" stroke-miterlimit="10"/>
<path d="M215.918 213.196H213.523L212.875 118.27H215.918V213.196Z" fill="#858585" stroke="#263238" stroke-miterlimit="10" stroke-linecap="round" stroke-linejoin="round"/>
<path d="M218.379 213.196H215.918V118.27H219.026L218.379 213.196Z" fill="#999999" stroke="#263238" stroke-miterlimit="10" stroke-linecap="round" stroke-linejoin="round"/>
<path d="M52.3125 213.196H49.917L49.2695 118.27H52.3125V213.196Z" fill="#858585" stroke="#263238" stroke-miterlimit="10" stroke-linecap="round" stroke-linejoin="round"/>
<path d="M54.708 213.196H52.3125V118.27H55.3554L54.708 213.196Z" fill="#999999" stroke="#263238" stroke-miterlimit="10" stroke-linecap="round" stroke-linejoin="round"/>
<path d="M235.018 213.196H232.622L231.975 118.27H235.018V213.196Z" fill="#858585" stroke="#263238" stroke-miterlimit="10" stroke-linecap="round" stroke-linejoin="round"/>
<path d="M237.413 213.196H235.018V118.27H238.061L237.413 213.196Z" fill="#999999" stroke="#263238" stroke-miterlimit="10" stroke-linecap="round" stroke-linejoin="round"/>
<path d="M150.269 111.821H130.975C130.587 111.821 130.263 111.499 130.263 111.112V109.5L150.981 110.145V111.112C150.981 111.499 150.657 111.821 150.269 111.821Z" fill="#858585" stroke="#263238" stroke-miterlimit="10" stroke-linecap="round" stroke-linejoin="round"/>
<path d="M128.127 111.821H89.3455C88.6981 111.821 88.1154 111.37 87.9212 110.725L79.5693 83.8338C79.3103 83.1244 79.8283 82.415 80.5405 82.415H119.322C119.969 82.415 120.552 82.8664 120.746 83.5113L129.098 110.403C129.292 111.176 128.839 111.821 128.127 111.821Z" fill="#999999" stroke="#263238" stroke-miterlimit="10" stroke-linecap="round" stroke-linejoin="round"/>
<path d="M130.846 110.403L122.494 83.5113C122.3 82.8665 121.717 82.415 121.07 82.415H119.322C119.969 82.415 120.552 82.8665 120.746 83.5113L129.098 110.403C129.357 111.112 128.839 111.821 128.127 111.821H129.875C130.587 111.821 131.04 111.176 130.846 110.403Z" fill="#858585" stroke="#263238" stroke-miterlimit="10" stroke-linecap="round" stroke-linejoin="round"/>
<path d="M106.697 97.1182C106.891 98.408 105.92 99.5043 104.625 99.5043C103.33 99.5043 102.1 98.408 101.906 97.1182C101.711 95.8285 102.683 94.7322 103.977 94.7322C105.272 94.7322 106.567 95.764 106.697 97.1182Z" fill="white" stroke="#263238" stroke-miterlimit="10" stroke-linecap="round" stroke-linejoin="round"/>
</g>
<defs>
<clipPath id="clip0_7_5240">
<rect width="276" height="213.97" fill="white"/>
</clipPath>
</defs>
</svg>
